<svg width="254" height="263" viewBox="0 0 254 263" fill="none" xmlns="http://www.w3.org/2000/svg">
<path d="M223.17 186.27C223.17 178.607 216.875 172.399 209.113 172.399C203.944 172.399 199.431 175.152 196.988 179.252C195.632 178.942 194.224 178.773 192.775 178.773C182.492 178.773 174.156 186.997 174.156 197.143C174.156 207.289 182.492 215.513 192.775 215.513C194.384 215.513 195.948 215.312 197.44 214.93C199.459 216.47 201.993 217.388 204.743 217.388C211.355 217.388 216.712 212.101 216.712 205.579C216.712 203.146 215.964 200.886 214.688 199.007C219.677 196.877 223.17 191.978 223.17 186.27Z" fill="#202EFF"/>
<path d="M221.778 186.67C221.778 179.284 216.088 173.299 209.066 173.299C204.394 173.299 200.313 175.951 198.102 179.903C196.878 179.604 195.603 179.443 194.292 179.443C184.993 179.443 177.457 187.371 177.457 197.15C177.457 206.929 184.993 214.858 194.292 214.858C195.749 214.858 197.163 214.664 198.512 214.297C200.341 215.779 202.628 216.665 205.117 216.665C211.092 216.665 215.938 211.568 215.938 205.281C215.938 202.934 215.264 200.757 214.106 198.946C218.618 196.895 221.778 192.173 221.778 186.67Z" fill="white" stroke="#202EFF" stroke-miterlimit="10"/>
<path d="M194.923 181.577C186.907 181.577 180.41 188.304 180.41 196.603C180.41 204.903 186.907 211.63 194.923 211.63C202.939 211.63 209.436 204.903 209.436 196.603C209.436 188.304 202.939 181.577 194.923 181.577ZM195.57 209.848C188.503 209.848 182.777 203.917 182.777 196.603C182.777 189.286 188.506 183.358 195.57 183.358C202.637 183.358 208.362 189.29 208.362 196.603C208.362 203.92 202.633 209.848 195.57 209.848Z" fill="#202EFF"/>
<path d="M209.264 175.098C203.122 175.098 198.141 180.256 198.141 186.616C198.141 192.975 203.122 198.133 209.264 198.133C215.407 198.133 220.388 192.975 220.388 186.616C220.388 180.256 215.407 175.098 209.264 175.098ZM209.758 196.769C204.342 196.769 199.952 192.223 199.952 186.616C199.952 181.008 204.342 176.462 209.758 176.462C215.174 176.462 219.564 181.008 219.564 186.616C219.564 192.223 215.174 196.769 209.758 196.769Z" fill="#202EFF"/>
<path d="M226.76 239.606C222.86 242.244 221.709 247.574 224.195 251.512C225.846 254.132 228.693 255.471 231.561 255.298C231.835 256.09 232.2 256.864 232.666 257.598C235.955 262.809 242.417 263.896 247.582 260.402C252.748 256.907 254.663 250.158 251.375 244.947C250.861 244.13 250.256 243.406 249.585 242.78C249.72 241.225 249.38 239.627 248.5 238.231C246.387 234.88 241.979 233.984 238.659 236.23C237.422 237.068 236.507 238.224 235.962 239.519C233.278 237.723 229.666 237.641 226.76 239.606Z" fill="#202EFF"/>
<path d="M228.347 240.221C224.812 242.611 223.79 247.47 226.06 251.072C227.572 253.469 230.165 254.704 232.772 254.56C233.026 255.287 233.359 255.992 233.784 256.665C236.794 261.438 243.03 262.737 247.713 259.57C252.395 256.403 253.751 249.967 250.74 245.198C250.268 244.45 249.718 243.788 249.107 243.215C249.225 241.797 248.908 240.336 248.102 239.058C246.166 235.992 242.158 235.153 239.147 237.19C238.025 237.95 237.201 239.001 236.707 240.181C234.267 238.529 230.982 238.439 228.347 240.221Z" fill="white" stroke="#202EFF" stroke-miterlimit="10"/>
<path d="M234.603 255.651C237.196 259.764 242.522 260.92 246.495 258.235C250.468 255.55 251.584 250.036 248.991 245.922C246.398 241.808 241.072 240.653 237.099 243.338C233.126 246.023 232.007 251.537 234.603 255.651ZM247.927 246.167C250.215 249.791 249.231 254.65 245.727 257.018C242.226 259.387 237.534 258.368 235.246 254.74C232.959 251.116 233.943 246.257 237.447 243.889C240.947 241.52 245.64 242.539 247.927 246.167Z" fill="#202EFF"/>
<path d="M226.858 250.389C228.846 253.541 232.927 254.427 235.972 252.368C239.017 250.309 239.873 246.084 237.884 242.931C235.896 239.778 231.815 238.893 228.77 240.952C225.724 243.01 224.869 247.236 226.858 250.389ZM237.071 243.118C238.823 245.897 238.068 249.622 235.385 251.436C232.701 253.25 229.103 252.469 227.351 249.69C225.599 246.912 226.354 243.187 229.037 241.373C231.721 239.559 235.319 240.34 237.071 243.118Z" fill="#202EFF"/>
<path d="M220.476 79.6994C221.835 76.7805 222.6 73.4945 222.6 70.0249C222.6 57.8706 213.249 48.0162 201.715 48.0162C196.108 48.0162 191.023 50.3484 187.272 54.1383C187.404 52.6159 187.477 51.0754 187.477 49.517C187.48 22.1707 166.443 0 140.489 0C122.247 0 106.43 10.9558 98.6433 26.9684C93.4082 21.728 86.3377 18.5068 78.5476 18.5068C62.4251 18.5068 49.3582 32.2807 49.3582 49.2687C49.3582 52.4935 49.8309 55.6032 50.7069 58.5257C47.3281 57.5503 43.7754 57.0212 40.1046 57.0212C17.9579 57.0212 0 75.9455 0 99.2859C0 122.63 17.9579 141.551 40.1081 141.551C40.268 141.551 40.4244 141.54 40.5808 141.536C43.4973 155.281 55.1356 165.557 69.0576 165.557C77.6542 165.557 85.3783 161.641 90.7211 155.411C97.9794 160.252 106.583 163.056 115.809 163.056C132.022 163.056 146.319 154.4 154.763 141.234C158.84 148.317 166.227 153.05 174.66 153.05C185.937 153.05 195.34 144.588 197.464 133.363C202.703 138.441 209.697 141.547 217.375 141.547C233.627 141.547 246.801 127.662 246.801 110.537C246.808 94.5171 235.274 81.3334 220.476 79.6994Z" fill="#202EFF"/>
<path d="M218.979 80.2214C220.299 77.4356 221.043 74.3044 221.043 70.9896C221.043 59.3931 211.964 49.9922 200.763 49.9922C195.32 49.9922 190.38 52.2164 186.737 55.8336C186.866 54.3831 186.935 52.9111 186.935 51.4246C186.935 25.3308 166.506 4.17868 141.303 4.17868C123.585 4.17868 108.228 14.6342 100.667 29.9089C95.5848 24.9097 88.7159 21.8361 81.1518 21.8361C65.4951 21.8361 52.8036 34.9765 52.8036 51.1871C52.8036 54.2643 53.2624 57.23 54.1106 60.0194C50.8291 59.0908 47.3808 58.5833 43.8142 58.5833C22.3037 58.5833 4.86719 76.6366 4.86719 98.9081C4.86719 121.18 22.3037 139.233 43.8142 139.233C43.9672 139.233 44.1201 139.222 44.2731 139.222C47.1061 152.337 58.4072 162.141 71.9295 162.141C80.2758 162.141 87.7774 158.406 92.9673 152.46C100.017 157.077 108.374 159.755 117.332 159.755C133.079 159.755 146.963 151.499 155.163 138.938C159.122 145.697 166.294 150.21 174.487 150.21C185.44 150.21 194.569 142.137 196.634 131.426C201.723 136.271 208.512 139.233 215.972 139.233C231.753 139.233 244.549 125.984 244.549 109.644C244.549 94.3552 233.349 81.7762 218.979 80.2214Z" fill="white" stroke="#202EFF" stroke-miterlimit="10"/>
<path d="M82.0362 23.9342C67.8291 23.9342 56.3125 35.8581 56.3125 50.5678C56.3125 65.2775 67.8291 77.2015 82.0362 77.2015C96.2433 77.2015 107.76 65.2775 107.76 50.5678C107.76 35.8581 96.2433 23.9342 82.0362 23.9342ZM83.1798 74.045C70.6552 74.045 60.5048 63.5355 60.5048 50.5678C60.5048 37.6001 70.6552 27.0906 83.1798 27.0906C95.7045 27.0906 105.855 37.6001 105.855 50.5678C105.855 63.5355 95.701 74.045 83.1798 74.045Z" fill="#202EFF"/>
<path d="M45.5389 60.6455C25.3805 60.6455 9.03906 77.5651 9.03906 98.4365C9.03906 119.308 25.3805 136.227 45.5389 136.227C65.6972 136.227 82.0387 119.308 82.0387 98.4365C82.0387 77.5651 65.6972 60.6455 45.5389 60.6455ZM46.6408 132.848C28.0085 132.848 12.9011 117.21 12.9011 97.9146C12.9011 78.6232 28.0051 62.9813 46.6408 62.9813C65.2766 62.9813 80.3805 78.6196 80.3805 97.9146C80.3771 117.21 65.2731 132.848 46.6408 132.848Z" fill="#202EFF"/>
<path d="M75.781 64.9644C55.6227 64.9644 39.2812 81.884 39.2812 102.755C39.2812 123.627 55.6227 140.546 75.781 140.546C95.9394 140.546 112.281 123.627 112.281 102.755C112.281 81.884 95.9394 64.9644 75.781 64.9644ZM76.1009 138.427C57.0375 138.427 41.579 122.425 41.579 102.683C41.579 82.9457 57.0341 66.9403 76.1009 66.9403C95.1676 66.9403 110.623 82.9421 110.623 102.683C110.619 122.425 95.1642 138.427 76.1009 138.427Z" fill="#202EFF"/>
<path d="M58.7725 111.923C47.249 119.459 43.8076 135.241 51.0867 147.176C58.3658 159.111 73.6088 162.67 85.1358 155.134C96.6593 147.597 100.101 131.815 92.8216 119.88C85.5425 107.945 70.296 104.386 58.7725 111.923ZM84.4996 151.967C74.3422 158.611 60.9034 155.472 54.4864 144.952C48.0693 134.435 51.1006 120.521 61.2614 113.877C71.4188 107.233 84.8577 110.371 91.2747 120.892C97.6917 131.408 94.6605 145.323 84.4996 151.967Z" fill="#202EFF"/>
<path d="M196.585 55.7544C187.37 58.5401 182.079 68.5349 184.773 78.0762C187.467 87.6176 197.117 93.0954 206.332 90.3061C215.547 87.5168 220.838 77.5256 218.144 67.9843C215.45 58.4429 205.8 52.9651 196.585 55.7544ZM206.495 88.0351C198.372 90.4933 189.862 85.6632 187.491 77.252C185.117 68.8409 189.782 60.0302 197.906 57.5755C206.03 55.1173 214.539 59.9474 216.91 68.3586C219.281 76.7698 214.619 85.5804 206.495 88.0351Z" fill="#202EFF"/>
<path d="M170.515 111.901C161.299 114.687 156.009 124.681 158.703 134.223C161.393 143.764 171.046 149.242 180.262 146.453C189.477 143.667 194.768 133.672 192.074 124.131C189.38 114.589 179.73 109.112 170.515 111.901ZM180.425 144.182C172.301 146.64 163.792 141.81 161.421 133.399C159.047 124.987 163.712 116.177 171.836 113.722C179.959 111.264 188.469 116.094 190.84 124.505C193.211 132.916 188.549 141.727 180.425 144.182Z" fill="#202EFF"/>
<path d="M209.371 86.0196C196.005 90.0615 188.337 104.555 192.24 118.39C196.144 132.229 210.143 140.169 223.505 136.127C236.868 132.085 244.539 117.591 240.636 103.756C236.732 89.9211 222.737 81.9778 209.371 86.0196ZM222.918 134.27C210.49 138.027 197.472 130.642 193.843 117.775C190.214 104.908 197.347 91.4291 209.774 87.6716C222.202 83.9141 235.22 91.2996 238.849 104.167C242.478 117.033 235.348 130.512 222.918 134.27Z" fill="#202EFF"/>
<path d="M101.538 77.3996C81.4841 86.2247 72.1367 110.213 80.6637 130.976C89.1907 151.74 112.356 161.418 132.41 152.589C152.464 143.764 161.811 119.776 153.284 99.0124C144.757 78.249 121.592 68.5709 101.538 77.3996ZM132.375 149.285C113.823 157.452 92.3923 148.497 84.5049 129.288C76.6174 110.08 85.2662 87.8911 103.818 79.7246C122.371 71.5582 143.801 80.5128 151.689 99.7215C159.573 118.93 150.924 141.122 132.375 149.285Z" fill="#202EFF"/>
<path d="M174.678 57.5862C155.576 57.5862 140.09 73.6204 140.09 93.3976C140.09 113.175 155.576 129.209 174.678 129.209C193.779 129.209 209.266 113.175 209.266 93.3976C209.266 73.6204 193.779 57.5862 174.678 57.5862ZM175.37 127.125C157.422 127.125 142.871 112.059 142.871 93.4768C142.871 74.8945 157.422 59.8284 175.37 59.8284C193.32 59.8284 207.868 74.8945 207.868 93.4768C207.872 112.059 193.32 127.125 175.37 127.125Z" fill="#202EFF"/>
<path d="M180.542 61.2251C186.695 39.13 174.383 16.0523 153.042 9.6818C131.702 3.31131 109.413 16.0595 103.26 38.1546C97.1073 60.2497 109.42 83.3274 130.76 89.6979C152.1 96.0684 174.39 83.3202 180.542 61.2251ZM105.829 40.3357C111.565 19.7306 132.349 7.84263 152.253 13.7848C172.154 19.727 183.636 41.2463 177.9 61.8514C172.165 82.4564 151.377 94.3444 131.476 88.4058C111.572 82.4636 100.09 60.9444 105.829 40.3357Z" fill="#202EFF"/>
<path d="M84.992 29.5129C74.3375 29.5129 65.6992 38.4568 65.6992 49.4882C65.6992 60.5195 74.3375 69.4634 84.992 69.4634C95.6464 69.4634 104.285 60.5195 104.285 49.4882C104.285 38.4568 95.6464 29.5129 84.992 29.5129ZM85.8506 67.0952C76.458 67.0952 68.8452 59.2131 68.8452 49.4882C68.8452 39.7633 76.458 31.8811 85.8506 31.8811C95.2432 31.8811 102.856 39.7633 102.856 49.4882C102.856 59.2131 95.2432 67.0952 85.8506 67.0952Z" fill="#202EFF"/>
<path d="M172.346 60.7968C177.321 42.9307 167.365 24.2691 150.109 19.1187C132.853 13.9684 114.829 24.2763 109.855 42.1424C104.881 60.0086 114.836 78.6701 132.092 83.8205C149.348 88.9709 167.368 78.6665 172.346 60.7968ZM111.889 43.7585C116.505 27.1736 133.232 17.6071 149.25 22.3904C165.269 27.17 174.508 44.4891 169.888 61.0739C165.272 77.6588 148.545 87.2253 132.527 82.442C116.512 77.6624 107.269 60.3433 111.889 43.7585Z" fill="#202EFF"/>
<path d="M49.1013 68.5636C33.2152 68.5636 20.3359 81.8984 20.3359 98.3465C20.3359 114.795 33.2152 128.129 49.1013 128.129C64.9874 128.129 77.8666 114.795 77.8666 98.3465C77.8666 81.8984 64.9874 68.5636 49.1013 68.5636ZM50.1545 125.97C35.4503 125.97 23.5305 113.628 23.5305 98.4041C23.5305 83.1797 35.4503 70.8383 50.1545 70.8383C64.8587 70.8383 76.7785 83.1797 76.7785 98.4041C76.7785 113.628 64.8587 125.97 50.1545 125.97Z" fill="#202EFF"/>
<path d="M60.3366 118.901C53.0123 126.639 53.1339 139.056 60.6077 146.64C68.0815 154.223 80.0742 154.097 87.3985 146.359C94.7228 138.621 94.6012 126.204 87.1274 118.62C79.6536 111.037 67.6608 111.163 60.3366 118.901ZM86.387 144.106C79.9317 150.926 69.3572 151.038 62.7699 144.354C56.1825 137.671 56.0748 126.722 62.53 119.902C68.9853 113.081 79.5598 112.97 86.1471 119.653C92.7345 126.341 92.8422 137.286 86.387 144.106Z" fill="#202EFF"/>
</svg>
