<svg width="375" height="491" viewBox="0 0 375 491" fill="none" xmlns="http://www.w3.org/2000/svg">
<circle cx="119" cy="142" r="258.5" stroke="#1D29BC" stroke-width="17"/>
<circle cx="118.999" cy="142" r="219.427" stroke="#1D29BC" stroke-width="17"/>
<circle cx="119" cy="142" r="180.354" stroke="#1D29BC" stroke-width="17"/>
<circle cx="118.999" cy="142" r="141.28" stroke="#1D29BC" stroke-width="17"/>
<circle cx="119" cy="142" r="95.6951" stroke="#1D29BC" stroke-width="17"/>
<circle cx="119.001" cy="142" r="56.6219" stroke="#1D29BC" stroke-width="17"/>
<path fill-rule="evenodd" clip-rule="evenodd" d="M389.075 378.679L387.411 377.585C390.262 365.911 391.96 353.807 391.028 343.323C388.597 315.974 374.294 301.638 366.929 296.305C360.405 291.58 353.689 292.876 330.151 297.417L330.15 297.417C327.118 298.002 323.806 298.641 320.179 299.328C292.816 304.51 281.732 295.84 275.47 288.508C271.072 283.361 261.348 268.417 255.426 259.05C255.484 253.676 251.183 248.756 247.191 244.251C231.45 226.442 197.479 188.386 187.524 178.632C178.491 169.781 170.51 168.912 164.563 171.186C155.113 160 137.935 143.721 134.265 146.152C130.932 148.361 143.916 164.112 153.729 176.015L153.729 176.015L154.664 177.149C154.955 177.502 155.242 177.851 155.525 178.195C152.389 182.418 151.095 187.946 155.258 193.916C158.895 199.131 174.848 217.47 190.775 235.778L190.776 235.779C200.874 247.387 210.961 258.981 217.891 267.211C219.747 269.249 222.897 271.773 226.82 273.433C228.031 274.389 229.275 275.229 230.716 276.203C234.862 279.002 240.644 282.906 251.972 293.856C257.083 298.796 261.788 305.464 265.868 312.457C264.106 315.377 261.523 318.001 258.955 320.61L258.954 320.61C252.854 326.807 246.838 332.918 252.116 342.718C256.246 350.388 267.254 360.737 284.598 372.119C285.412 377.7 286.177 383.31 286.791 388.444C287.247 392.773 287.718 397.746 288.143 403.135C288.179 403.953 288.201 404.713 288.206 405.408C288.23 408.48 288.48 411.526 288.921 414.493C289.497 423.687 292.282 430.389 295.684 435.226C297.451 438.445 299.429 441.181 301.502 443.258C308.653 450.426 319.488 453.756 331.571 451.916C345.994 449.72 363.745 435.058 370.869 422.047C371.887 420.187 373.075 417.81 374.358 415.021C375.771 415.529 377.195 416.036 378.631 416.54C449.48 441.439 428.424 402.174 389.075 378.679Z" fill="black" fill-opacity="0.15"/>
<path d="M215.191 165.415C202.17 159.705 174.175 147.617 166.362 144.944C159.273 142.517 154.953 144.692 152.551 148.128C144.596 144.393 131.269 140.122 130.075 142.881C128.922 145.544 141.452 151.438 149.895 155.557C149.474 159.247 150.359 163.122 154.155 165.415C159.574 168.688 191.591 182.544 206.646 189.647C210.308 191.179 218.609 191.903 222.516 182.544C227.398 170.846 220.888 167.903 215.191 165.415Z" fill="#C4C4C4"/>
<path d="M325.26 200.669L324.104 200.555C322.295 192.333 319.778 184.236 316.369 178.039C307.479 161.874 296.164 157.833 290.91 157.025C285.657 156.217 282.424 160.258 267.876 174.806C255.349 187.333 247.263 185.717 242.013 183.292C237.813 181.353 226.523 173.863 221.403 170.361C214.129 165.496 208.876 171.573 206.855 176.826C204.835 182.08 205.643 188.344 211.705 190.162C215.746 191.374 218.17 190.162 231.506 194.607C235.499 195.938 239.767 198.48 243.806 201.437C243.526 209.585 237.519 218.815 245.245 224.916C249.5 228.276 258.017 230.961 270.059 232.133C274.707 239.636 279.261 247.33 281.212 251.587C285.657 261.286 292.931 268.56 298.589 270.58C304.246 272.601 310.712 270.984 316.369 265.731C323.122 259.46 328.089 244.313 328.089 233.806C328.089 232.304 328.031 230.423 327.906 228.254C328.77 228.089 329.639 227.919 330.513 227.744C373.666 219.113 351.93 201.881 325.26 200.669Z" fill="#FF9882"/>
<path d="M352.432 212.579C354.886 218.236 342.287 222.835 328.766 224.511C328.766 222.744 328.503 217.882 327.452 212.579C326.401 207.276 325.553 203.796 325.261 201.881C337.719 201.881 349.978 206.922 352.432 212.579Z" fill="white" fill-opacity="0.3"/>
<g opacity="0.3">
<path d="M281.297 209.155C289.379 211.095 311.605 221.548 321.708 226.532C316.993 227.61 305.624 229.927 297.865 230.573C288.166 231.381 281.297 230.169 273.214 226.532C266.749 223.622 254.356 206.731 248.968 198.648C256.376 201.342 273.214 207.216 281.297 209.155Z" fill="black" fill-opacity="0.3"/>
<path d="M261.899 195.416L324.536 224.512C324.317 222.533 325.583 218.858 325.18 216.025C324.595 211.916 322.282 208.687 321.708 207.539C320.495 205.114 316.05 205.114 307.968 202.69C301.502 200.75 274.561 197.032 261.899 195.416Z" fill="black" fill-opacity="0.3"/>
</g>
<path d="M319.2 257.649C324.49 247.95 325.127 235.153 324.049 230.573C319.2 231.786 306.429 234.291 297.377 234.614C288.325 234.938 275.825 233.671 270.706 232.998C272.727 236.231 278.223 245.525 284.042 256.84C291.316 270.984 301.419 270.176 303.843 269.772C306.268 269.368 311.926 270.984 319.2 257.649Z" fill="white" fill-opacity="0.3"/>
<line x1="2" y1="-2" x2="50.8506" y2="-2" transform="matrix(-0.917556 -0.397607 -0.397607 0.917556 205.643 171.977)" stroke="white" stroke-opacity="0.3" stroke-width="4" stroke-linecap="round"/>
<line x1="5" y1="-5" x2="47.8506" y2="-5" transform="matrix(-0.917556 -0.397607 -0.397607 0.917556 204.027 174.402)" stroke="white" stroke-opacity="0.3" stroke-width="10" stroke-linecap="round"/>
</svg>
