<svg width="16" height="20" viewBox="0 0 16 20" fill="none" xmlns="http://www.w3.org/2000/svg">
<path d="M10.8005 7.52148C10.5676 7.52148 10.3789 7.71019 10.3789 7.94303V15.9102C10.3789 16.1429 10.5676 16.3318 10.8005 16.3318C11.0333 16.3318 11.222 16.1429 11.222 15.9102V7.94303C11.222 7.71019 11.0333 7.52148 10.8005 7.52148Z" fill="#FE451D" stroke="#FE451D" stroke-width="0.5"/>
<path d="M5.81998 7.52148C5.58714 7.52148 5.39844 7.71019 5.39844 7.94303V15.9102C5.39844 16.1429 5.58714 16.3318 5.81998 16.3318C6.05282 16.3318 6.24153 16.1429 6.24153 15.9102V7.94303C6.24153 7.71019 6.05282 7.52148 5.81998 7.52148Z" fill="#FE451D" stroke="#FE451D" stroke-width="0.5"/>
<path d="M2.19726 6.35877V16.7447C2.19726 17.3586 2.42235 17.9351 2.81558 18.3487C3.20699 18.7635 3.7517 18.999 4.32177 19H12.2975C12.8678 18.999 13.4125 18.7635 13.8037 18.3487C14.1969 17.9351 14.422 17.3586 14.422 16.7447V6.35877C15.2037 6.15129 15.7102 5.39614 15.6057 4.59405C15.5009 3.79213 14.8177 3.19225 14.0089 3.19209H11.8506V2.66516C11.8531 2.22204 11.6779 1.79654 11.3642 1.48351C11.0505 1.17065 10.6244 0.996433 10.1812 1.00006H6.43806C5.99494 0.996433 5.56879 1.17065 5.2551 1.48351C4.94141 1.79654 4.76621 2.22204 4.76868 2.66516V3.19209H2.6104C1.80156 3.19225 1.11836 3.79213 1.01364 4.59405C0.909074 5.39614 1.41559 6.15129 2.19726 6.35877ZM12.2975 18.1569H4.32177C3.60103 18.1569 3.04034 17.5378 3.04034 16.7447V6.39582H13.579V16.7447C13.579 17.5378 13.0183 18.1569 12.2975 18.1569ZM5.61177 2.66516C5.60897 2.44566 5.69525 2.23439 5.85102 2.07944C6.00663 1.92449 6.21839 1.83936 6.43806 1.84314H10.1812C10.4009 1.83936 10.6127 1.92449 10.7683 2.07944C10.924 2.23423 11.0103 2.44566 11.0075 2.66516V3.19209H5.61177V2.66516ZM2.6104 4.03517H14.0089C14.428 4.03517 14.7677 4.37488 14.7677 4.79395C14.7677 5.21303 14.428 5.55273 14.0089 5.55273H2.6104C2.19133 5.55273 1.85162 5.21303 1.85162 4.79395C1.85162 4.37488 2.19133 4.03517 2.6104 4.03517Z" fill="#FE451D" stroke="#FE451D" stroke-width="0.5"/>
<path d="M8.31217 7.52148C8.07933 7.52148 7.89062 7.71019 7.89062 7.94303V15.9102C7.89062 16.1429 8.07933 16.3318 8.31217 16.3318C8.54501 16.3318 8.73371 16.1429 8.73371 15.9102V7.94303C8.73371 7.71019 8.54501 7.52148 8.31217 7.52148Z" fill="#FE451D" stroke="#FE451D" stroke-width="0.5"/>
</svg>
