<svg width="20" height="20" viewBox="0 0 20 20" fill="none" xmlns="http://www.w3.org/2000/svg">
<path d="M9.08203 4.90154H10.9154V6.79972H9.08203V4.90154ZM9.08203 8.69791H10.9154V14.3925H9.08203V8.69791ZM9.9987 0.156067C4.9387 0.156067 0.832031 4.40801 0.832031 9.647C0.832031 14.886 4.9387 19.1379 9.9987 19.1379C15.0587 19.1379 19.1654 14.886 19.1654 9.647C19.1654 4.40801 15.0587 0.156067 9.9987 0.156067ZM9.9987 17.2398C5.9562 17.2398 2.66536 13.8325 2.66536 9.647C2.66536 5.4615 5.9562 2.05425 9.9987 2.05425C14.0412 2.05425 17.332 5.4615 17.332 9.647C17.332 13.8325 14.0412 17.2398 9.9987 17.2398Z" fill="black"/>
</svg>
