<svg width="20" height="20" viewBox="0 0 20 20" fill="none" xmlns="http://www.w3.org/2000/svg">
<path d="M9.08203 5.41659H10.9154V7.24992H9.08203V5.41659ZM9.08203 9.08325H10.9154V14.5833H9.08203V9.08325ZM9.9987 0.833252C4.9387 0.833252 0.832031 4.93992 0.832031 9.99992C0.832031 15.0599 4.9387 19.1666 9.9987 19.1666C15.0587 19.1666 19.1654 15.0599 19.1654 9.99992C19.1654 4.93992 15.0587 0.833252 9.9987 0.833252ZM9.9987 17.3333C5.9562 17.3333 2.66536 14.0424 2.66536 9.99992C2.66536 5.95742 5.9562 2.66659 9.9987 2.66659C14.0412 2.66659 17.332 5.95742 17.332 9.99992C17.332 14.0424 14.0412 17.3333 9.9987 17.3333Z" fill="white"/>
</svg>
