<svg width="176" height="52" viewBox="0 0 176 52" fill="none" xmlns="http://www.w3.org/2000/svg">
<path d="M31.8753 0.808C32.5473 0.551999 33.4913 0.423999 34.7073 0.423999C35.9233 0.423999 37.0113 0.503999 37.9713 0.663999C36.9793 8.024 36.1953 14.696 35.6193 20.68C35.0753 26.632 34.7713 29.768 34.7073 30.088C34.6753 30.408 34.6593 30.696 34.6593 30.952C34.6913 31.784 35.0913 32.2 35.8593 32.2C37.7793 32.2 40.4513 29.992 43.8753 25.576C44.4833 27.272 44.8353 28.408 44.9313 28.984C43.3953 31.416 41.5393 33.416 39.3633 34.984C37.2193 36.52 35.1873 37.288 33.2673 37.288C31.3473 37.288 30.0193 36.792 29.2833 35.8C28.5473 34.808 28.1793 33.704 28.1793 32.488C28.1793 32.2 28.2113 31.64 28.2753 30.808C28.3713 29.976 29.0113 24.792 30.1953 15.256L22.3233 33.448H18.2433L15.8913 15.544L12.5313 30.424C11.9873 32.792 11.0913 34.536 9.84331 35.656C8.62731 36.776 7.28331 37.336 5.81131 37.336C4.33931 37.336 3.13931 36.904 2.21131 36.04C1.21931 35.112 0.723313 33.8 0.723313 32.104C0.723313 28.712 3.34731 25.816 8.59531 23.416C11.4433 9.752 12.9793 2.184 13.2033 0.711998C13.9713 0.519999 14.9953 0.423999 16.2753 0.423999C17.5873 0.423999 18.4833 0.455998 18.9633 0.519998H19.2993L22.2753 22.84L31.8753 1.048V0.808ZM4.13131 31.288C4.13131 32.312 4.53131 32.824 5.33131 32.824C5.87531 32.824 6.32331 32.392 6.67531 31.528C7.12331 30.472 7.49131 29.08 7.77931 27.352C5.34731 28.728 4.13131 30.04 4.13131 31.288ZM48.8947 51.256C47.0707 51.256 45.5027 50.696 44.1907 49.576C42.8787 48.488 42.2227 46.888 42.2227 44.776C42.2227 42.184 43.5347 39.656 46.1587 37.192C44.3027 37.032 42.8147 36.424 41.6947 35.368C40.5747 34.312 40.0147 32.824 40.0147 30.904C40.0147 30.008 40.1267 28.664 40.3507 26.872C40.5747 25.08 40.8147 23.144 41.0707 21.064C41.3267 18.984 41.5987 16.776 41.8867 14.44C42.8787 14.088 43.7907 13.912 44.6227 13.912C45.4547 13.912 46.0787 13.944 46.4947 14.008C46.9107 14.072 47.3107 14.312 47.6947 14.728C48.0787 15.144 48.2707 15.736 48.2707 16.504L46.6867 28.744C46.6227 29.256 46.5907 29.608 46.5907 29.8C46.5907 31.688 47.4547 32.632 49.1827 32.632C50.7507 32.632 52.0307 31.896 53.0227 30.424C53.1187 29.688 53.3587 27.576 53.7427 24.088C54.1267 20.568 54.4467 17.832 54.7027 15.88C54.9907 15.272 55.5827 14.792 56.4787 14.44C57.4067 14.088 58.1587 13.912 58.7347 13.912C59.7587 13.912 60.6867 14.04 61.5187 14.296L59.2627 32.008C63.0067 32.68 65.2467 35.256 65.9827 39.736C65.8547 40.344 65.2467 41.304 64.1587 42.616C63.5187 38.616 61.7587 36.184 58.8787 35.32L58.1107 41.32C57.7587 44.2 56.8467 46.568 55.3747 48.424C53.9027 50.312 51.7427 51.256 48.8947 51.256ZM45.9667 43.864C45.9667 44.92 46.2227 45.704 46.7347 46.216C47.2467 46.728 47.9187 46.984 48.7507 46.984C49.6147 46.984 50.2707 46.632 50.7187 45.928C51.1667 45.224 51.5187 43.816 51.7747 41.704L52.3987 36.424C48.2067 38.6 46.0627 41.08 45.9667 43.864ZM82.4624 12.808C83.4224 11.368 83.9024 10.024 83.9024 8.776C83.9024 7.528 83.5504 6.536 82.8464 5.8C82.1424 5.064 81.2144 4.696 80.0624 4.696C78.9104 4.696 77.9824 4.984 77.2784 5.56C76.5744 6.104 76.2224 6.984 76.2224 8.2C76.2224 9.384 77.0544 11.528 78.7184 14.632C80.3824 17.736 81.4384 19.736 81.8864 20.632C83.1024 23.064 83.7104 25.416 83.7104 27.688C83.7104 30.536 82.6704 32.856 80.5904 34.648C78.5424 36.408 76.1104 37.288 73.2944 37.288C70.5104 37.288 68.3184 36.424 66.7184 34.696C65.1184 32.936 64.3184 30.888 64.3184 28.552C64.3184 24.232 66.9904 20.664 72.3344 17.848C70.1584 13.56 69.0704 10.568 69.0704 8.872C69.0704 6.504 70.0144 4.504 71.9024 2.872C73.8224 1.208 76.1584 0.375999 78.9104 0.375999C81.6944 0.375999 83.8224 1.08 85.2944 2.488C86.7664 3.896 87.5024 5.688 87.5024 7.864C87.5024 9.304 87.0224 10.952 86.0624 12.808H82.4624ZM69.8864 31.528C70.7504 32.456 71.7904 32.92 73.0064 32.92C74.2544 32.92 75.2144 32.568 75.8864 31.864C76.5904 31.128 76.9424 30.056 76.9424 28.648C76.9424 27.368 76.4464 25.8 75.4544 23.944C75.3264 23.688 75.0864 23.224 74.7344 22.552C74.3824 21.848 74.1264 21.352 73.9664 21.064C70.3824 22.92 68.5904 25.256 68.5904 28.072C68.5904 29.512 69.0224 30.664 69.8864 31.528ZM109.164 19.72C109.164 23.048 107.18 25.592 103.212 27.352C103.308 27.928 103.452 28.616 103.644 29.416C104.22 31.784 105.18 33 106.524 33.064C106.62 33.064 106.716 33.064 106.812 33.064C109.372 33.064 111.276 30.808 112.524 26.296C113.196 26.904 113.836 27.816 114.444 29.032C113.996 30.76 113.356 32.216 112.524 33.4C111.724 34.584 110.844 35.432 109.884 35.944C108.188 36.84 106.588 37.288 105.084 37.288C101.564 37.288 99.0999 35.32 97.6919 31.384C97.1479 29.816 96.7799 28.216 96.5879 26.584C98.4119 26.136 99.8519 25.4 100.908 24.376C101.964 23.32 102.492 22.2 102.492 21.016C102.492 18.968 101.468 17.944 99.4199 17.944C98.2999 17.944 97.3399 18.376 96.5399 19.24C95.7399 20.072 95.2119 21.08 94.9559 22.264C94.7639 23.896 94.4439 26.472 93.9959 29.992C93.5799 33.48 93.3079 35.816 93.1799 37H86.7959C89.0999 17.384 90.4919 5.336 90.9719 0.855999C91.6439 0.599998 92.5559 0.471998 93.7079 0.471998C96.2039 0.471998 97.4519 1.208 97.4519 2.68V2.968C96.8119 8.76 96.2199 13.192 95.6759 16.264C97.4359 14.632 99.6439 13.816 102.3 13.816C104.284 13.816 105.916 14.328 107.196 15.352C108.508 16.376 109.164 17.832 109.164 19.72ZM114.88 1.672C115.616 0.903997 116.512 0.519998 117.568 0.519998C118.624 0.519998 119.52 0.903997 120.256 1.672C121.024 2.408 121.408 3.304 121.408 4.36C121.408 5.416 121.024 6.312 120.256 7.048C119.52 7.784 118.624 8.152 117.568 8.152C116.512 8.152 115.616 7.784 114.88 7.048C114.144 6.312 113.776 5.416 113.776 4.36C113.776 3.304 114.144 2.408 114.88 1.672ZM112.912 15.736C113.232 15.16 113.84 14.728 114.736 14.44C115.632 14.12 116.512 13.96 117.376 13.96C118.272 13.96 119.056 14.072 119.728 14.296C118.48 23.928 117.856 28.792 117.856 28.888C117.696 29.528 117.616 30.072 117.616 30.52C117.616 30.936 117.648 31.304 117.712 31.624C117.84 32.456 118.416 32.872 119.44 32.872C120.496 32.872 121.456 32.2 122.32 30.856C123.216 29.48 123.888 27.928 124.336 26.2C124.56 26.328 124.912 26.712 125.392 27.352C125.872 27.992 126.16 28.472 126.256 28.792C125.616 31.352 124.528 33.416 122.992 34.984C121.456 36.552 119.616 37.336 117.472 37.336C115.328 37.336 113.728 36.808 112.672 35.752C111.648 34.696 111.136 33.336 111.136 31.672C111.136 31.32 111.152 30.952 111.184 30.568L112.912 15.736ZM128.774 37.336C126.822 37.336 125.286 36.792 124.166 35.704C123.046 34.584 122.486 33.064 122.486 31.144C122.486 30.632 123.35 23.032 125.078 8.344C125.526 4.568 126.726 2.184 128.678 1.192C129.574 0.711998 130.646 0.471998 131.894 0.471998C136.118 0.471998 138.23 2.424 138.23 6.328C138.23 6.648 138.214 6.984 138.182 7.336C137.862 11.624 135.174 15.992 130.118 20.44C129.958 22.008 129.782 23.528 129.59 25C129.206 28.296 129.014 30.12 129.014 30.472C129.014 32.136 129.734 32.968 131.174 32.968C132.742 32.968 134.198 32.072 135.542 30.28C136.918 28.456 137.974 26.136 138.71 23.32C138.998 23.416 139.398 23.688 139.91 24.136C140.422 24.552 140.774 24.92 140.966 25.24C140.454 27.896 139.302 30.44 137.51 32.872C136.614 34.12 135.478 35.144 134.102 35.944C132.534 36.872 130.758 37.336 128.774 37.336ZM130.646 15.64C133.59 12.408 135.062 9.512 135.062 6.952C135.062 5.416 134.486 4.648 133.334 4.648C132.598 4.712 132.102 5.192 131.846 6.088C131.622 6.984 131.398 8.44 131.174 10.456C130.982 12.472 130.854 13.72 130.79 14.2L130.646 15.64ZM143.446 37.336C141.494 37.336 139.958 36.792 138.838 35.704C137.718 34.584 137.158 33.064 137.158 31.144C137.158 30.632 138.022 23.032 139.75 8.344C140.198 4.568 141.398 2.184 143.35 1.192C144.246 0.711998 145.318 0.471998 146.566 0.471998C150.79 0.471998 152.902 2.424 152.902 6.328C152.902 6.648 152.886 6.984 152.854 7.336C152.534 11.624 149.846 15.992 144.79 20.44C144.63 22.008 144.454 23.528 144.262 25C143.878 28.296 143.686 30.12 143.686 30.472C143.686 32.136 144.406 32.968 145.846 32.968C147.414 32.968 148.87 32.072 150.214 30.28C151.59 28.456 152.646 26.136 153.382 23.32C153.67 23.416 154.07 23.688 154.582 24.136C155.094 24.552 155.446 24.92 155.638 25.24C155.126 27.896 153.974 30.44 152.182 32.872C151.286 34.12 150.15 35.144 148.774 35.944C147.206 36.872 145.43 37.336 143.446 37.336ZM145.318 15.64C148.262 12.408 149.734 9.512 149.734 6.952C149.734 5.416 149.158 4.648 148.006 4.648C147.27 4.712 146.774 5.192 146.518 6.088C146.294 6.984 146.07 8.44 145.846 10.456C145.654 12.472 145.526 13.72 145.462 14.2L145.318 15.64ZM171.75 22.312C174.278 24.168 175.542 26.36 175.542 28.888C175.542 31.416 174.55 33.448 172.566 34.984C170.582 36.52 168.086 37.288 165.078 37.288C163.126 37.288 161.494 36.808 160.182 35.848C158.902 34.856 158.262 33.64 158.262 32.2C158.262 30.76 158.742 29.624 159.702 28.792C160.662 27.928 161.862 27.4 163.302 27.208C162.63 28.168 162.294 29.096 162.294 29.992C162.294 30.856 162.598 31.56 163.206 32.104C163.814 32.648 164.582 32.92 165.51 32.92C166.438 32.92 167.206 32.584 167.814 31.912C168.422 31.208 168.726 30.408 168.726 29.512C168.726 28.04 168.038 26.728 166.662 25.576C165.83 24.904 164.934 24.28 163.974 23.704C163.014 23.096 162.502 22.776 162.438 22.744C162.31 22.648 162.182 22.568 162.054 22.504C161.478 23.176 160.646 24.104 159.558 25.288C158.47 26.44 157.606 27.368 156.966 28.072C155.174 30.024 154.166 31.656 153.942 32.968C153.878 33.224 153.846 33.72 153.846 34.456C153.846 35.16 154.054 35.896 154.47 36.664C154.918 37.432 155.446 38.008 156.054 38.392C156.662 38.776 157.254 39.08 157.83 39.304C158.438 39.56 158.95 39.736 159.366 39.832C159.814 39.928 160.038 39.992 160.038 40.024C160.038 40.248 159.686 40.504 158.982 40.792C157.67 41.272 156.294 41.512 154.854 41.512C153.446 41.512 152.07 41 150.726 39.976C148.902 38.568 147.99 36.696 147.99 34.36C147.99 32.92 148.358 31.496 149.094 30.088C150.406 27.592 153.478 24.168 158.31 19.816C157.126 18.632 156.534 17.368 156.534 16.024C156.534 14.68 157.03 13.544 158.022 12.616C159.046 11.688 160.246 11.224 161.622 11.224C162.87 11.224 163.958 11.72 164.886 12.712C165.494 13.384 165.798 14.232 165.798 15.256C165.798 16.28 165.462 17.432 164.79 18.712C168.214 20.248 170.534 21.448 171.75 22.312ZM161.334 16.888C162.102 16.088 162.486 15.512 162.486 15.16C162.486 14.36 162.134 13.928 161.43 13.864C160.63 13.864 160.23 14.312 160.23 15.208C160.23 15.752 160.598 16.312 161.334 16.888Z" fill="#202ED1"/>
</svg>
