<svg width="94" height="23" viewBox="0 0 94 23" fill="none" xmlns="http://www.w3.org/2000/svg">
<path d="M0.0935626 17V1.304H9.54956V3.656H2.87756V7.664H8.51756V10.016H2.87756V14.648H9.78956V17H0.0935626ZM16.8716 22.208C16.1676 22.208 15.5116 22.144 14.9036 22.016C14.3116 21.888 13.7996 21.696 13.3676 21.44C12.9356 21.184 12.5916 20.864 12.3356 20.48C12.0956 20.096 11.9756 19.648 11.9756 19.136C11.9756 18.64 12.1196 18.176 12.4076 17.744C12.6956 17.328 13.1116 16.952 13.6556 16.616V16.52C13.3516 16.328 13.0956 16.072 12.8876 15.752C12.6956 15.432 12.5996 15.032 12.5996 14.552C12.5996 14.088 12.7276 13.672 12.9836 13.304C13.2556 12.92 13.5596 12.608 13.8956 12.368V12.272C13.4956 11.968 13.1356 11.552 12.8156 11.024C12.5116 10.48 12.3596 9.856 12.3596 9.152C12.3596 8.48 12.4876 7.88 12.7436 7.352C12.9996 6.824 13.3356 6.384 13.7516 6.032C14.1836 5.664 14.6796 5.392 15.2396 5.216C15.7996 5.024 16.3916 4.928 17.0156 4.928C17.3356 4.928 17.6396 4.96 17.9276 5.024C18.2316 5.072 18.5036 5.136 18.7436 5.216H22.9676V7.256H20.8076C20.9996 7.48 21.1596 7.768 21.2876 8.12C21.4156 8.456 21.4796 8.832 21.4796 9.248C21.4796 9.904 21.3596 10.48 21.1196 10.976C20.8956 11.472 20.5836 11.888 20.1836 12.224C19.7836 12.56 19.3116 12.816 18.7676 12.992C18.2236 13.168 17.6396 13.256 17.0156 13.256C16.7596 13.256 16.4956 13.232 16.2236 13.184C15.9516 13.136 15.6796 13.056 15.4076 12.944C15.2316 13.104 15.0876 13.264 14.9756 13.424C14.8796 13.584 14.8316 13.8 14.8316 14.072C14.8316 14.408 14.9676 14.672 15.2396 14.864C15.5276 15.056 16.0316 15.152 16.7516 15.152H18.8396C20.2636 15.152 21.3356 15.384 22.0556 15.848C22.7916 16.296 23.1596 17.032 23.1596 18.056C23.1596 18.632 23.0076 19.176 22.7036 19.688C22.4156 20.2 21.9996 20.64 21.4556 21.008C20.9116 21.376 20.2476 21.664 19.4636 21.872C18.6956 22.096 17.8316 22.208 16.8716 22.208ZM17.0156 11.528C17.5756 11.528 18.0556 11.328 18.4556 10.928C18.8556 10.512 19.0556 9.92 19.0556 9.152C19.0556 8.416 18.8556 7.848 18.4556 7.448C18.0716 7.032 17.5916 6.824 17.0156 6.824C16.4396 6.824 15.9516 7.024 15.5516 7.424C15.1516 7.824 14.9516 8.4 14.9516 9.152C14.9516 9.92 15.1516 10.512 15.5516 10.928C15.9516 11.328 16.4396 11.528 17.0156 11.528ZM17.3036 20.408C18.2636 20.408 19.0316 20.216 19.6076 19.832C20.1996 19.464 20.4956 19.024 20.4956 18.512C20.4956 18.048 20.3116 17.736 19.9436 17.576C19.5916 17.416 19.0796 17.336 18.4076 17.336H16.7996C16.1596 17.336 15.6236 17.28 15.1916 17.168C14.5836 17.632 14.2796 18.152 14.2796 18.728C14.2796 19.256 14.5436 19.664 15.0716 19.952C15.6156 20.256 16.3596 20.408 17.3036 20.408ZM29.9014 17.288C29.0854 17.288 28.3254 17.152 27.6214 16.88C26.9174 16.592 26.3014 16.184 25.7734 15.656C25.2454 15.128 24.8294 14.488 24.5254 13.736C24.2374 12.968 24.0934 12.096 24.0934 11.12C24.0934 10.16 24.2454 9.296 24.5494 8.528C24.8534 7.76 25.2534 7.112 25.7494 6.584C26.2614 6.056 26.8454 5.648 27.5014 5.36C28.1574 5.072 28.8294 4.928 29.5174 4.928C30.3174 4.928 31.0214 5.064 31.6294 5.336C32.2374 5.608 32.7414 5.992 33.1414 6.488C33.5574 6.984 33.8694 7.576 34.0774 8.264C34.2854 8.952 34.3894 9.704 34.3894 10.52C34.3894 10.792 34.3734 11.048 34.3414 11.288C34.3254 11.528 34.3014 11.72 34.2694 11.864H26.7814C26.9094 12.92 27.2774 13.736 27.8854 14.312C28.5094 14.872 29.3014 15.152 30.2614 15.152C30.7734 15.152 31.2454 15.08 31.6774 14.936C32.1254 14.776 32.5654 14.56 32.9974 14.288L33.9334 16.016C33.3734 16.384 32.7494 16.688 32.0614 16.928C31.3734 17.168 30.6534 17.288 29.9014 17.288ZM26.7574 9.992H31.9894C31.9894 9.08 31.7894 8.368 31.3894 7.856C31.0054 7.328 30.4054 7.064 29.5894 7.064C28.8854 7.064 28.2694 7.312 27.7414 7.808C27.2134 8.304 26.8854 9.032 26.7574 9.992ZM37.0254 17V5.216H39.3054L39.4974 6.8H39.5934C40.1214 6.288 40.6894 5.848 41.2974 5.48C41.9214 5.112 42.6414 4.928 43.4574 4.928C44.7214 4.928 45.6414 5.336 46.2174 6.152C46.7934 6.952 47.0814 8.104 47.0814 9.608V17H44.3214V9.968C44.3214 8.992 44.1774 8.304 43.8894 7.904C43.6014 7.504 43.1294 7.304 42.4734 7.304C41.9614 7.304 41.5054 7.432 41.1054 7.688C40.7214 7.928 40.2814 8.288 39.7854 8.768V17H37.0254ZM54.5831 17.288C53.0951 17.288 51.9111 16.752 51.0311 15.68C50.1671 14.592 49.7351 13.072 49.7351 11.12C49.7351 10.16 49.8711 9.296 50.1431 8.528C50.4311 7.76 50.8071 7.112 51.2711 6.584C51.7351 6.056 52.2631 5.648 52.8551 5.36C53.4631 5.072 54.0871 4.928 54.7271 4.928C55.3991 4.928 55.9671 5.048 56.4311 5.288C56.8951 5.512 57.3591 5.824 57.8231 6.224L57.7271 4.328V0.0559993H60.4871V17H58.2071L58.0151 15.728H57.9191C57.4871 16.16 56.9831 16.528 56.4071 16.832C55.8311 17.136 55.2231 17.288 54.5831 17.288ZM55.2551 15.008C56.1351 15.008 56.9591 14.568 57.7271 13.688V8.192C57.3111 7.824 56.9031 7.568 56.5031 7.424C56.1191 7.28 55.7271 7.208 55.3271 7.208C54.5591 7.208 53.9111 7.544 53.3831 8.216C52.8551 8.888 52.5911 9.848 52.5911 11.096C52.5911 12.376 52.8151 13.352 53.2631 14.024C53.7271 14.68 54.3911 15.008 55.2551 15.008ZM66.858 17.288C65.818 17.288 64.978 16.976 64.338 16.352C63.698 15.712 63.378 14.872 63.378 13.832C63.378 13.208 63.506 12.656 63.762 12.176C64.034 11.68 64.45 11.256 65.01 10.904C65.586 10.552 66.306 10.256 67.17 10.016C68.05 9.776 69.098 9.592 70.314 9.464C70.298 9.16 70.25 8.872 70.17 8.6C70.106 8.312 69.986 8.064 69.81 7.856C69.65 7.632 69.434 7.464 69.162 7.352C68.89 7.224 68.554 7.16 68.154 7.16C67.578 7.16 67.01 7.272 66.45 7.496C65.906 7.72 65.37 7.992 64.842 8.312L63.834 6.464C64.49 6.048 65.226 5.688 66.042 5.384C66.858 5.08 67.738 4.928 68.682 4.928C70.154 4.928 71.25 5.368 71.97 6.248C72.706 7.112 73.074 8.368 73.074 10.016V17H70.794L70.602 15.704H70.506C69.978 16.152 69.41 16.528 68.802 16.832C68.21 17.136 67.562 17.288 66.858 17.288ZM67.746 15.128C68.226 15.128 68.658 15.016 69.042 14.792C69.442 14.568 69.866 14.248 70.314 13.832V11.192C69.514 11.288 68.842 11.416 68.298 11.576C67.754 11.736 67.314 11.92 66.978 12.128C66.642 12.32 66.402 12.544 66.258 12.8C66.114 13.056 66.042 13.328 66.042 13.616C66.042 14.144 66.202 14.528 66.522 14.768C66.842 15.008 67.25 15.128 67.746 15.128ZM80.154 17.288C79.466 17.288 78.882 17.184 78.402 16.976C77.938 16.768 77.554 16.48 77.25 16.112C76.962 15.728 76.746 15.28 76.602 14.768C76.474 14.24 76.41 13.656 76.41 13.016V7.4H74.73V5.336L76.554 5.216L76.89 2H79.194V5.216H82.194V7.4H79.194V13.016C79.194 14.392 79.746 15.08 80.85 15.08C81.058 15.08 81.266 15.056 81.474 15.008C81.698 14.96 81.898 14.896 82.074 14.816L82.554 16.856C82.234 16.968 81.866 17.064 81.45 17.144C81.05 17.24 80.618 17.288 80.154 17.288ZM87.0143 17.288C85.9743 17.288 85.1343 16.976 84.4943 16.352C83.8543 15.712 83.5343 14.872 83.5343 13.832C83.5343 13.208 83.6623 12.656 83.9183 12.176C84.1903 11.68 84.6063 11.256 85.1663 10.904C85.7423 10.552 86.4623 10.256 87.3263 10.016C88.2063 9.776 89.2543 9.592 90.4703 9.464C90.4543 9.16 90.4063 8.872 90.3263 8.6C90.2623 8.312 90.1423 8.064 89.9663 7.856C89.8063 7.632 89.5903 7.464 89.3183 7.352C89.0463 7.224 88.7103 7.16 88.3103 7.16C87.7343 7.16 87.1663 7.272 86.6063 7.496C86.0623 7.72 85.5263 7.992 84.9983 8.312L83.9902 6.464C84.6463 6.048 85.3823 5.688 86.1983 5.384C87.0143 5.08 87.8943 4.928 88.8383 4.928C90.3103 4.928 91.4063 5.368 92.1263 6.248C92.8623 7.112 93.2303 8.368 93.2303 10.016V17H90.9503L90.7583 15.704H90.6623C90.1343 16.152 89.5663 16.528 88.9583 16.832C88.3663 17.136 87.7183 17.288 87.0143 17.288ZM87.9023 15.128C88.3823 15.128 88.8143 15.016 89.1983 14.792C89.5983 14.568 90.0223 14.248 90.4703 13.832V11.192C89.6703 11.288 88.9983 11.416 88.4543 11.576C87.9103 11.736 87.4703 11.92 87.1343 12.128C86.7983 12.32 86.5583 12.544 86.4143 12.8C86.2703 13.056 86.1983 13.328 86.1983 13.616C86.1983 14.144 86.3583 14.528 86.6783 14.768C86.9983 15.008 87.4063 15.128 87.9023 15.128Z" fill="white"/>
</svg>
