<svg width="185" height="40" viewBox="0 0 185 40" fill="none" xmlns="http://www.w3.org/2000/svg">
<path d="M0.823708 30V2.532H17.3717V6.648H5.69571V13.662H15.5657V17.778H5.69571V25.884H17.7917V30H0.823708ZM33.1853 39.114C31.9533 39.114 30.8053 39.002 29.7413 38.778C28.7053 38.554 27.8093 38.218 27.0533 37.77C26.2973 37.322 25.6953 36.762 25.2473 36.09C24.8273 35.418 24.6173 34.634 24.6173 33.738C24.6173 32.87 24.8693 32.058 25.3733 31.302C25.8773 30.574 26.6053 29.916 27.5573 29.328V29.16C27.0253 28.824 26.5773 28.376 26.2133 27.816C25.8773 27.256 25.7093 26.556 25.7093 25.716C25.7093 24.904 25.9333 24.176 26.3813 23.532C26.8573 22.86 27.3893 22.314 27.9773 21.894V21.726C27.2773 21.194 26.6473 20.466 26.0873 19.542C25.5553 18.59 25.2893 17.498 25.2893 16.266C25.2893 15.09 25.5133 14.04 25.9613 13.116C26.4093 12.192 26.9973 11.422 27.7253 10.806C28.4813 10.162 29.3493 9.686 30.3293 9.378C31.3093 9.042 32.3453 8.874 33.4373 8.874C33.9973 8.874 34.5293 8.93 35.0333 9.042C35.5653 9.126 36.0413 9.238 36.4613 9.378H43.8533V12.948H40.0733C40.4093 13.34 40.6893 13.844 40.9133 14.46C41.1373 15.048 41.2493 15.706 41.2493 16.434C41.2493 17.582 41.0393 18.59 40.6193 19.458C40.2273 20.326 39.6813 21.054 38.9813 21.642C38.2813 22.23 37.4553 22.678 36.5033 22.986C35.5513 23.294 34.5293 23.448 33.4373 23.448C32.9893 23.448 32.5273 23.406 32.0513 23.322C31.5753 23.238 31.0993 23.098 30.6233 22.902C30.3153 23.182 30.0633 23.462 29.8673 23.742C29.6993 24.022 29.6153 24.4 29.6153 24.876C29.6153 25.464 29.8533 25.926 30.3293 26.262C30.8333 26.598 31.7153 26.766 32.9753 26.766H36.6293C39.1213 26.766 40.9973 27.172 42.2573 27.984C43.5453 28.768 44.1893 30.056 44.1893 31.848C44.1893 32.856 43.9233 33.808 43.3913 34.704C42.8873 35.6 42.1593 36.37 41.2073 37.014C40.2553 37.658 39.0933 38.162 37.7213 38.526C36.3773 38.918 34.8653 39.114 33.1853 39.114ZM33.4373 20.424C34.4173 20.424 35.2573 20.074 35.9573 19.374C36.6573 18.646 37.0073 17.61 37.0073 16.266C37.0073 14.978 36.6573 13.984 35.9573 13.284C35.2853 12.556 34.4453 12.192 33.4373 12.192C32.4293 12.192 31.5753 12.542 30.8753 13.242C30.1753 13.942 29.8253 14.95 29.8253 16.266C29.8253 17.61 30.1753 18.646 30.8753 19.374C31.5753 20.074 32.4293 20.424 33.4373 20.424ZM33.9413 35.964C35.6213 35.964 36.9653 35.628 37.9733 34.956C39.0093 34.312 39.5273 33.542 39.5273 32.646C39.5273 31.834 39.2053 31.288 38.5613 31.008C37.9453 30.728 37.0493 30.588 35.8733 30.588H33.0593C31.9393 30.588 31.0013 30.49 30.2453 30.294C29.1813 31.106 28.6493 32.016 28.6493 33.024C28.6493 33.948 29.1113 34.662 30.0353 35.166C30.9873 35.698 32.2893 35.964 33.9413 35.964ZM58.9874 30.504C57.5594 30.504 56.2294 30.266 54.9974 29.79C53.7654 29.286 52.6874 28.572 51.7634 27.648C50.8394 26.724 50.1114 25.604 49.5794 24.288C49.0754 22.944 48.8234 21.418 48.8234 19.71C48.8234 18.03 49.0894 16.518 49.6214 15.174C50.1534 13.83 50.8534 12.696 51.7214 11.772C52.6174 10.848 53.6394 10.134 54.7874 9.63C55.9354 9.126 57.1114 8.874 58.3154 8.874C59.7154 8.874 60.9474 9.112 62.0114 9.588C63.0754 10.064 63.9574 10.736 64.6574 11.604C65.3854 12.472 65.9314 13.508 66.2954 14.712C66.6594 15.916 66.8414 17.232 66.8414 18.66C66.8414 19.136 66.8134 19.584 66.7574 20.004C66.7294 20.424 66.6874 20.76 66.6314 21.012H53.5274C53.7514 22.86 54.3954 24.288 55.4594 25.296C56.5514 26.276 57.9374 26.766 59.6174 26.766C60.5134 26.766 61.3394 26.64 62.0954 26.388C62.8794 26.108 63.6494 25.73 64.4054 25.254L66.0434 28.278C65.0634 28.922 63.9714 29.454 62.7674 29.874C61.5634 30.294 60.3034 30.504 58.9874 30.504ZM53.4854 17.736H62.6414C62.6414 16.14 62.2914 14.894 61.5914 13.998C60.9194 13.074 59.8694 12.612 58.4414 12.612C57.2094 12.612 56.1314 13.046 55.2074 13.914C54.2834 14.782 53.7094 16.056 53.4854 17.736ZM74.4545 30V9.378H78.4445L78.7805 12.15H78.9485C79.8725 11.254 80.8665 10.484 81.9305 9.84C83.0225 9.196 84.2825 8.874 85.7105 8.874C87.9225 8.874 89.5325 9.588 90.5405 11.016C91.5485 12.416 92.0525 14.432 92.0525 17.064V30H87.2225V17.694C87.2225 15.986 86.9705 14.782 86.4665 14.082C85.9625 13.382 85.1365 13.032 83.9885 13.032C83.0925 13.032 82.2945 13.256 81.5945 13.704C80.9225 14.124 80.1525 14.754 79.2845 15.594V30H74.4545ZM108.18 30.504C105.576 30.504 103.504 29.566 101.964 27.69C100.452 25.786 99.6964 23.126 99.6964 19.71C99.6964 18.03 99.9344 16.518 100.41 15.174C100.914 13.83 101.572 12.696 102.384 11.772C103.196 10.848 104.12 10.134 105.156 9.63C106.22 9.126 107.312 8.874 108.432 8.874C109.608 8.874 110.602 9.084 111.414 9.504C112.226 9.896 113.038 10.442 113.85 11.142L113.682 7.824V0.347999H118.512V30H114.522L114.186 27.774H114.018C113.262 28.53 112.38 29.174 111.372 29.706C110.364 30.238 109.3 30.504 108.18 30.504ZM109.356 26.514C110.896 26.514 112.338 25.744 113.682 24.204V14.586C112.954 13.942 112.24 13.494 111.54 13.242C110.868 12.99 110.182 12.864 109.482 12.864C108.138 12.864 107.004 13.452 106.08 14.628C105.156 15.804 104.694 17.484 104.694 19.668C104.694 21.908 105.086 23.616 105.87 24.792C106.682 25.94 107.844 26.514 109.356 26.514ZM132.661 30.504C130.841 30.504 129.371 29.958 128.251 28.866C127.131 27.746 126.571 26.276 126.571 24.456C126.571 23.364 126.795 22.398 127.243 21.558C127.719 20.69 128.447 19.948 129.427 19.332C130.435 18.716 131.695 18.198 133.207 17.778C134.747 17.358 136.581 17.036 138.709 16.812C138.681 16.28 138.597 15.776 138.457 15.3C138.345 14.796 138.135 14.362 137.827 13.998C137.547 13.606 137.169 13.312 136.693 13.116C136.217 12.892 135.629 12.78 134.929 12.78C133.921 12.78 132.927 12.976 131.947 13.368C130.995 13.76 130.057 14.236 129.133 14.796L127.369 11.562C128.517 10.834 129.805 10.204 131.233 9.672C132.661 9.14 134.201 8.874 135.853 8.874C138.429 8.874 140.347 9.644 141.607 11.184C142.895 12.696 143.539 14.894 143.539 17.778V30H139.549L139.213 27.732H139.045C138.121 28.516 137.127 29.174 136.063 29.706C135.027 30.238 133.893 30.504 132.661 30.504ZM134.215 26.724C135.055 26.724 135.811 26.528 136.483 26.136C137.183 25.744 137.925 25.184 138.709 24.456V19.836C137.309 20.004 136.133 20.228 135.181 20.508C134.229 20.788 133.459 21.11 132.871 21.474C132.283 21.81 131.863 22.202 131.611 22.65C131.359 23.098 131.233 23.574 131.233 24.078C131.233 25.002 131.513 25.674 132.073 26.094C132.633 26.514 133.347 26.724 134.215 26.724ZM158.929 30.504C157.725 30.504 156.703 30.322 155.863 29.958C155.051 29.594 154.379 29.09 153.847 28.446C153.343 27.774 152.965 26.99 152.713 26.094C152.489 25.17 152.377 24.148 152.377 23.028V13.2H149.437V9.588L152.629 9.378L153.217 3.75H157.249V9.378H162.499V13.2H157.249V23.028C157.249 25.436 158.215 26.64 160.147 26.64C160.511 26.64 160.875 26.598 161.239 26.514C161.631 26.43 161.981 26.318 162.289 26.178L163.129 29.748C162.569 29.944 161.925 30.112 161.197 30.252C160.497 30.42 159.741 30.504 158.929 30.504ZM173.935 30.504C172.115 30.504 170.645 29.958 169.525 28.866C168.405 27.746 167.845 26.276 167.845 24.456C167.845 23.364 168.069 22.398 168.517 21.558C168.993 20.69 169.721 19.948 170.701 19.332C171.709 18.716 172.969 18.198 174.481 17.778C176.021 17.358 177.855 17.036 179.983 16.812C179.955 16.28 179.871 15.776 179.731 15.3C179.619 14.796 179.409 14.362 179.101 13.998C178.821 13.606 178.443 13.312 177.967 13.116C177.491 12.892 176.903 12.78 176.203 12.78C175.195 12.78 174.201 12.976 173.221 13.368C172.269 13.76 171.331 14.236 170.407 14.796L168.643 11.562C169.791 10.834 171.079 10.204 172.507 9.672C173.935 9.14 175.475 8.874 177.127 8.874C179.703 8.874 181.621 9.644 182.881 11.184C184.169 12.696 184.813 14.894 184.813 17.778V30H180.823L180.487 27.732H180.319C179.395 28.516 178.401 29.174 177.337 29.706C176.301 30.238 175.167 30.504 173.935 30.504ZM175.489 26.724C176.329 26.724 177.085 26.528 177.757 26.136C178.457 25.744 179.199 25.184 179.983 24.456V19.836C178.583 20.004 177.407 20.228 176.455 20.508C175.503 20.788 174.733 21.11 174.145 21.474C173.557 21.81 173.137 22.202 172.885 22.65C172.633 23.098 172.507 23.574 172.507 24.078C172.507 25.002 172.787 25.674 173.347 26.094C173.907 26.514 174.621 26.724 175.489 26.724Z" fill="#221C78"/>
</svg>
