<svg width="27" height="20" viewBox="0 0 27 20" fill="none" xmlns="http://www.w3.org/2000/svg">
<path d="M0.395325 9.04442L9.04398 0.395757C9.57166 -0.131919 10.4274 -0.131919 10.9551 0.395757C11.4829 0.923542 11.4829 1.77911 10.9551 2.3069L4.61338 8.64863H24.7111C25.4574 8.64863 26.0625 9.25371 26.0625 9.99999C26.0625 10.7461 25.4574 11.3513 24.7111 11.3513H4.61338L10.9549 17.6931C11.4827 18.2209 11.4827 19.0764 10.9549 19.6042C10.6911 19.8679 10.3452 20 9.99934 20C9.6535 20 9.30766 19.8679 9.04377 19.6042L0.395325 10.9556C-0.13246 10.4278 -0.13246 9.5722 0.395325 9.04442Z" fill="white"/>
</svg>
