<svg width="298" height="167" viewBox="0 0 298 167" fill="none" xmlns="http://www.w3.org/2000/svg">
<path d="M268.986 129.788C240.365 155.34 202.606 143.305 161.985 161.288C121.364 179.272 22.3359 149.968 5.48489 102.788C-7.99591 65.0453 6.77149 42.9923 34.3109 27.6033C60.129 13.1763 97.4865 32.2883 134.486 11.2883C171.486 -9.71121 236.724 4.26449 256.285 19.3393C329.078 75.4403 288.531 112.339 268.986 129.788Z" fill="#FFF2EC"/>
<path d="M266.65 92.0942L189.46 54.8948L125.387 63.6977L121.252 61.142L124.615 63.8027L121.252 64.2656L123.307 65.4043L121.252 65.6854L140.336 76.2518L154.065 87.1191L111.495 60.7643L32.7558 72.4466C32.7558 72.4466 31.5657 72.5829 31.3075 73.1793C31.0408 73.7955 31.4141 74.2072 31.4141 74.2072L91.4737 126.292C91.4737 126.292 92.0491 126.772 92.3972 126.942C93.04 127.255 93.722 127.084 93.722 127.084L181.264 108.678C181.921 108.999 184.388 110.081 187.214 109.305C191.798 108.047 192.831 104.87 192.831 104.87L191.989 104.018L192.55 105.154L266.653 93.5112C266.906 93.5112 267.214 93.1988 267.214 92.9432C267.212 92.3781 266.65 92.0942 266.65 92.0942Z" fill="#202EFF"/>
<path d="M262.847 87.3633L262.292 92.0374C262.292 92.0374 212.003 98.986 203.961 99.0911C195.919 99.1961 190.592 103.001 190.592 103.001C190.592 103.001 188.049 100.977 185.11 102.462C183.987 103.03 180.579 105.889 180.579 105.889L94.1661 122.623L36.1612 72.8868L36.063 67.2501C36.063 67.2501 64.9742 61.2868 76.2019 59.583C87.4295 57.8792 111.597 55.8063 119.428 58.4471C119.973 58.6317 126.173 54.8408 135.708 52.4839C148.339 49.3602 155.657 51.862 167.426 50.7801C179.777 49.6442 184.526 50.3541 184.526 50.3541L262.847 87.3633Z" fill="white"/>
<path d="M262.846 87.3634L262.568 87.653L241.531 87.9796C241.531 87.9796 205.602 89.3994 189.603 95.6467C185.339 97.3107 185.112 102.462 185.112 102.462C185.112 102.462 181.463 99.6222 171.919 100.474C165.312 101.065 151.069 105.497 133.745 108.709C115.871 112.023 95.0099 114.672 95.0099 114.672L36.0787 68.3008L36.0591 67.2473C36.0591 67.2473 64.9703 61.284 76.198 59.5802C87.4256 57.8764 111.593 55.8035 119.425 58.4443C119.969 58.6289 126.17 54.838 135.704 52.4811C148.335 49.3575 155.605 50.5132 167.422 50.7773C179.408 51.0442 184.522 50.3513 184.522 50.3513L262.846 87.3634Z" fill="#202EFF"/>
<path d="M258.623 86.7356L237.419 87.0366C237.419 87.0366 195.604 89.8081 187.77 95.601C185.884 96.9953 184.009 100.883 184.009 100.883C184.009 100.883 179.257 98.381 170.017 99.1903C163.62 99.7498 149.826 103.694 133.055 106.747C115.751 109.896 95.5495 112.142 95.5495 112.142L39.0435 68.2127C39.0435 68.2127 66.467 62.2324 77.3382 60.6138C88.2094 58.9951 112.158 57.0244 119.74 59.5347C120.267 59.7107 126.532 55.8971 135.764 53.6566C147.994 50.6891 154.43 52.0295 165.666 52.251C177.671 52.4866 184.301 51.5496 184.301 51.5496L258.623 86.7356Z" fill="white"/>
<path d="M119.133 58.6005L184.969 102.317L185.191 100.846L119.72 58.467L119.133 58.6005Z" fill="#202EFF"/>
<path d="M37.12 73.9801L36.0786 73.3157V68.3008H36.6625L37.12 73.9801Z" fill="#202EFF"/>
<path d="M94.4109 114.198L92.9849 121.607L94.1667 122.62L95.0087 114.669L94.4109 114.198Z" fill="#202EFF"/>
<path d="M262.293 92.0374L262.849 87.3633L262.026 87.386L261.103 92.4207L262.293 92.0374Z" fill="#202EFF"/>
<path d="M54.5552 71.1404C54.5552 71.1404 67.3098 68.3916 78.995 66.1227C94.2674 63.1581 109.265 61.6304 109.265 61.6304L110.107 62.0705C110.107 62.0705 92.9847 64.1548 81.3893 66.3045C72.9096 67.8748 55.7228 71.8503 55.7228 71.8503L54.5552 71.1404Z" fill="#202EFF"/>
<path d="M57.6411 73.7161C57.6411 73.7161 70.3957 70.9674 82.0809 68.6985C97.3533 65.7339 112.351 64.2061 112.351 64.2061L113.193 64.6463C113.193 64.6463 96.0706 66.7306 84.4752 68.8802C75.9955 70.4505 58.8088 74.426 58.8088 74.426L57.6411 73.7161Z" fill="#202EFF"/>
<path d="M61.6528 76.5642C61.6528 76.5642 74.4074 73.8154 86.0926 71.5465C101.365 68.5819 116.362 67.0542 116.362 67.0542L117.205 67.4943C117.205 67.4943 100.082 69.5786 88.4869 71.7282C80.0072 73.2986 62.8205 77.2741 62.8205 77.2741L61.6528 76.5642Z" fill="#202EFF"/>
<path d="M65.2075 78.8247C65.2075 78.8247 77.9621 76.0759 89.6473 73.807C104.92 70.8424 119.917 69.3147 119.917 69.3147L120.759 69.7548C120.759 69.7548 103.637 71.8391 92.0416 73.9887C83.5619 75.5591 66.3752 79.5346 66.3752 79.5346L65.2075 78.8247Z" fill="#202EFF"/>
<path d="M68.3169 81.3603C68.3169 81.3603 81.0715 78.6115 92.7567 76.3426C108.029 73.378 123.026 71.8503 123.026 71.8503L123.869 72.2904C123.869 72.2904 106.746 74.3747 95.151 76.5244C86.6713 78.0947 69.4845 82.0702 69.4845 82.0702L68.3169 81.3603Z" fill="#202EFF"/>
<path d="M72.0903 84.2283C72.0903 84.2283 84.8449 81.4795 96.5301 79.2106C111.803 76.246 126.8 74.7183 126.8 74.7183L127.642 75.1584C127.642 75.1584 110.52 77.2427 98.9244 79.3923C90.4447 80.9627 73.258 84.9382 73.258 84.9382L72.0903 84.2283Z" fill="#202EFF"/>
<path d="M76.1294 86.7812C76.1294 86.7812 88.884 84.0324 100.569 81.7636C115.842 78.799 130.839 77.2712 130.839 77.2712L131.681 77.7114C131.681 77.7114 114.559 79.7957 102.963 81.9453C94.4838 83.5156 77.297 87.4911 77.297 87.4911L76.1294 86.7812Z" fill="#202EFF"/>
<path d="M79.6177 89.3369C79.6177 89.3369 92.3724 86.5881 104.058 84.3192C119.33 81.3547 134.327 79.8269 134.327 79.8269L135.169 80.2671C135.169 80.2671 118.047 82.3514 106.452 84.501C97.9722 86.0713 80.7854 90.0468 80.7854 90.0468L79.6177 89.3369Z" fill="#202EFF"/>
<path d="M82.3286 92.2048C82.3286 92.2048 95.0832 89.4561 106.768 87.1872C122.041 84.2226 137.038 82.6948 137.038 82.6948L137.88 83.135C137.88 83.135 120.758 85.2193 109.163 87.3689C100.683 88.9392 83.4963 92.9148 83.4963 92.9148L82.3286 92.2048Z" fill="#202EFF"/>
<path d="M95.0083 102.422C95.0083 102.422 107.763 99.6731 119.448 97.4043C134.72 94.4397 149.717 92.9119 149.717 92.9119L150.56 93.3521C150.56 93.3521 133.437 95.4364 121.842 97.586C113.363 99.1563 96.176 103.132 96.176 103.132L95.0083 102.422Z" fill="#202EFF"/>
</svg>
