<svg xmlns="http://www.w3.org/2000/svg" width="229" height="140" fill="none">
  <path fill="#202EFF" d="M86.133 79.516L114.306 0 229 14.408l-33.01 92.019L86.133 79.516z"/>
  <path fill="#fff" d="M88.977 79.516l27.462-77.172 111.495 12.774-32.231 88.918-106.726-24.52z"/>
  <path fill="#202EFF" d="M93.586 75.438l1.077-2.71 97.366 21.742 31.894-78.059-29.641 81.587-100.696-22.56zM87.053 76.727L0 96.47l.355 8.66 126.105 34.535c.277.078.568.053.828-.071l67.053-31.682v-5.819L87.053 76.727z"/>
  <path fill="#fff" d="M87.765 78.859L2.293 99.284l.366 2.888 123.816 33.848.057 1.99 66.79-30.926v-4.262L87.765 78.859z"/>
  <path fill="#202EFF" d="M126.461 133.15l2.424-1.083-.633 6.681-1.791.711v-6.309z"/>
  <path fill="#202EFF" d="M193.321 102.821l-66.862 30.535-.963-.284 66.126-30.94 1.699.689zM176.006 100.63l-41.257 15.605-.565-.135 40.827-15.804.995.334zM101.021 84.194l-42.946 11.59-.618-.106L99.93 83.935l1.091.259zM165.254 98.655l-39.193 14.361-.565-.131 38.763-14.557.995.327zM145.375 99.607l-31.166 11.498-.451-.11 30.824-11.647.793.259zM106.504 85.824l-29.186 8.53-.42-.079 28.863-8.643.743.192zM93.586 83.299L46.401 94.353l-.604-.089 46.73-11.185 1.06.22zM76.87 102.132l-21.82 5.815 37.598 10.046 18.206-7.115-33.984-8.746zm15.686 14.696l-35.103-8.867 19.417-5.118 31.908 8.053-16.222 5.932z"/>
  <path fill="#202EFF" d="M87.555 81.182l-50.11 11.683 106.51 26.549 41.649-16.82-98.049-21.412zm56.048 37.422L40.477 92.687l47.831-10.713 94.698 20.869-39.403 15.761z"/>
  <path fill="#202EFF" d="M150.481 115.851L47.625 90.939l1.112-.262 102.832 24.741-1.088.433zM176.425 105.347L81.348 83.171l1.055-.299 95.06 22.365-1.038.11zM121.241 104.587L57.457 88.893l.697-.17 63.77 15.587-.683.277z"/>
</svg>
