<svg width="275" height="258" viewBox="0 0 275 258" fill="none" xmlns="http://www.w3.org/2000/svg">
<g clip-path="url(#clip0)">
<path d="M176.6 5.94753e-10C130.142 -0.000156416 103.343 30.8524 52.1497 47.5483C0.954502 64.2449 -11.9777 153.084 10.8473 209.911C29.1073 255.373 60.2304 263.473 97.5159 255.074C132.471 247.199 133.776 222.553 186.382 226.728C247.241 231.558 262.389 217.013 267.9 187.296C299.566 16.5737 208.325 0.000106817 176.6 5.94753e-10Z" fill="#FFF2EC"/>
<path d="M195.739 194.985L78.7393 196V62L195.512 62.6768L195.739 194.985Z" fill="#202EFF"/>
<path d="M194.25 193.042H81.9072V65.7222L193.911 64.707L194.25 193.042Z" fill="white" stroke="#202EFF" stroke-miterlimit="10"/>
<path d="M86.29 69.9521V175.528H189.863V69.9521H86.29ZM188.065 173.667L88.8929 171.975V71.4749H188.742L188.065 173.667Z" fill="#202EFF"/>
<path d="M88.5557 172.99L125.788 124.939L158.958 173.667L88.5557 172.99Z" fill="#202EFF"/>
<path d="M156.589 174.343L140.681 147.273L159.974 129.677L186.713 172.652L156.589 174.343Z" fill="#202EFF"/>
<path d="M161.328 173.667L144.743 148.626L160.651 132.722L185.021 172.651L161.328 173.667Z" fill="white"/>
<path d="M161.667 81.9648C151.759 81.9648 143.728 89.9947 143.728 99.8992C143.728 109.804 151.759 117.834 161.667 117.834C171.574 117.834 179.605 109.804 179.605 99.8992C179.605 89.9947 171.574 81.9648 161.667 81.9648ZM163.474 115.783C152.924 116.318 144.574 106.112 148.392 95.1415C149.837 90.9895 153.09 87.7377 157.243 86.2928C168.219 82.4724 178.424 90.8237 177.89 101.371C177.5 109.103 171.212 115.39 163.474 115.783Z" fill="#202EFF"/>
<path d="M93.6338 171.298L126.127 128.662L158.959 173.667L93.6338 171.298Z" fill="white"/>
</g>
<defs>
<clipPath id="clip0">
<rect width="275" height="258" fill="white"/>
</clipPath>
</defs>
</svg>
