<svg width="100" height="185" viewBox="0 0 100 185" fill="none" xmlns="http://www.w3.org/2000/svg">
<path d="M49.0796 184.086C43.1786 184.086 37.9041 181.905 33.8244 177.782C29.7398 173.658 27.5785 168.331 27.5785 162.371C27.5785 156.359 29.8127 150.997 34.0381 146.863C36.3159 144.629 38.8949 142.973 41.6778 141.939H38.2344V133.167C38.2344 129.753 38.6763 125.246 39.5894 119.389C40.4831 113.672 41.605 108.538 42.9309 104.133C44.2519 99.7381 47.37 91.7195 52.4599 79.6212C54.8203 74.0165 56.8262 68.3437 58.4192 62.7584C59.8908 57.6053 60.6388 52.8942 60.6388 48.7514C60.6388 42.0198 58.9826 35.9828 55.714 30.8006C53.1302 26.7015 49.2739 24.8753 43.2223 24.8753C38.9823 24.8753 35.7428 25.905 33.0279 28.11C31.6728 29.2125 30.8472 30.0964 30.3809 30.7035C30.8083 31.33 31.4834 32.2334 32.5276 33.4573C37.0639 38.7561 39.3611 44.1423 39.3611 49.4702C39.3611 54.3513 37.5495 58.8341 34.1206 62.4427C30.5995 66.1436 26.0778 68.096 21.0316 68.096C15.5142 68.096 10.434 65.687 6.33975 61.1362C2.39602 56.7505 0.39502 50.7087 0.39502 43.1709C0.39502 32.7579 4.61558 22.9083 12.945 13.9038C21.4201 4.73414 33.8487 0.0861816 49.8858 0.0861816C63.8249 0.0861816 75.6317 4.2436 84.9714 12.4371C94.6801 20.9559 99.6049 32.7336 99.6049 47.4449C99.6049 59.8492 93.2911 74.1525 80.2991 91.1658C68.5408 106.513 61.581 121.084 59.5994 134.469L58.4921 141.939H56.2337C59.1089 142.983 61.751 144.658 64.0628 146.927C68.3271 151.103 70.5807 156.446 70.5807 162.376C70.5807 168.282 68.366 173.605 64.1697 177.777C60.0171 181.905 54.8009 184.086 49.0796 184.086Z" fill="white"/>
<path d="M49.0783 179.229C44.44 179.229 40.4672 177.592 37.2762 174.368C34.0659 171.123 32.434 167.087 32.434 162.371C32.434 157.631 34.1144 153.58 37.4316 150.331C40.6906 147.135 44.5323 145.513 48.8451 145.513C53.3814 145.513 57.3543 147.155 60.6569 150.389C64.0129 153.682 65.7128 157.709 65.7128 162.371C65.7128 167.019 64.0372 171.041 60.7346 174.329C57.4757 177.583 53.5514 179.229 49.0783 179.229ZM43.0898 137.082V133.167C43.0898 130.006 43.5172 125.741 44.3866 120.136C45.2462 114.639 46.3196 109.723 47.5775 105.532C48.85 101.302 51.9098 93.4387 56.9317 81.5056C59.3698 75.726 61.4388 69.8638 63.0853 64.0891C64.6832 58.5037 65.4894 53.3458 65.4894 48.7513C65.4894 41.0921 63.5807 34.176 59.8118 28.207C56.3343 22.6945 50.9044 20.0136 43.2112 20.0136C37.8639 20.0136 33.5316 21.4269 29.9522 24.3361C26.8341 26.8762 25.0954 29.2366 25.0565 30.9948C25.1099 31.2279 25.5471 32.7724 28.8254 36.6044C32.5846 40.9998 34.4933 45.3272 34.4933 49.4604C34.4933 53.1224 33.1771 56.3619 30.5884 59.0866C27.9706 61.8355 24.7505 63.2294 21.0205 63.2294C16.8631 63.2294 13.1331 61.4275 9.94216 57.8772C6.83381 54.4192 5.25049 49.4701 5.25049 43.1708C5.25049 34.0157 9.0388 25.2783 16.5085 17.1966C24.0269 9.0663 35.2558 4.94287 49.8845 4.94287C62.6093 4.94287 73.338 8.69232 81.7694 16.0893C90.3805 23.6465 94.7468 34.1954 94.7468 47.4448C94.7468 58.7466 88.7583 72.0834 76.4366 88.2177C64.1732 104.226 56.8929 119.549 54.7899 133.76L54.2993 137.087H43.0898V137.082Z" fill="#202EFF"/>
<path d="M81.0082 20.2809C88.9442 27.0368 92.917 36.425 92.917 48.4407C92.917 58.6545 86.9529 71.3405 75.0197 86.4986C61.9938 102.997 54.354 118.665 52.0908 133.512H47.8459C47.8459 130.608 48.2733 126.504 49.1233 121.2C49.978 115.901 51.0223 111.244 52.2656 107.237C53.5089 103.23 56.6464 95.4157 61.6878 83.7885C64.2473 77.8972 66.3989 71.9865 68.1425 66.0563C69.8909 60.1262 70.7603 54.6865 70.7603 49.7375C70.7603 41.3303 68.6185 33.8314 64.325 27.231C60.0316 20.6306 53.2855 17.3329 44.0867 17.3329C37.768 17.3329 32.445 19.0425 28.1176 22.4568C23.7902 25.876 21.6289 29.1155 21.6289 32.1801C21.6289 33.9091 23.2365 36.5998 26.4565 40.2521C29.6766 43.9044 31.2842 47.3042 31.2842 50.4417C31.2842 53.0352 30.3226 55.3131 28.3993 57.2752C26.4711 59.2374 24.135 60.2233 21.386 60.2233C18.2437 60.2233 15.417 58.8682 12.9012 56.1581C10.3951 53.4529 9.13721 49.4655 9.13721 44.2007C9.13721 36.1093 12.6195 28.4112 19.5793 21.1066C26.5391 13.802 36.9861 10.1497 50.9057 10.1497C63.038 10.1497 73.0673 13.5251 81.0082 20.2809ZM59.3177 171.575C56.7144 174.091 53.6352 175.344 50.0849 175.344C46.3743 175.344 43.2562 174.105 40.7355 171.633C38.21 169.161 36.9472 166.116 36.9472 162.502C36.9472 158.889 38.2489 155.844 40.8521 153.372C43.4554 150.895 46.4569 149.661 49.8518 149.661C53.4798 149.661 56.6124 150.919 59.2594 153.43C61.9064 155.946 63.2225 158.967 63.2225 162.502C63.2225 166.038 61.9209 169.059 59.3177 171.575Z" fill="white"/>
</svg>
