<svg xmlns="http://www.w3.org/2000/svg" width="237" height="198" fill="none">
  <path fill="#FFF2EC" d="M151.927 0C111.96 0 88.905 23.564 44.864 36.315.82 49.067-10.304 116.918 9.332 160.32c15.709 34.721 42.484 40.908 74.56 34.492 30.072-6.014 31.194-24.837 76.451-21.648 52.357 3.689 65.388-7.421 70.129-30.116C257.714 12.658 179.22 0 151.927 0z"/>
  <g clip-path="url(#clip0)">
    <path fill="#202EFF" d="M186.148 152.177L74.246 120.108 98.146 40 209 76.307l-22.852 75.87z"/>
    <path fill="#fff" d="M207.354 77.445L101.523 44.776l-22.272 71.645 105.831 32.668 22.272-71.644z"/>
    <path fill="#202EFF" d="M144.827 90.253l44.068 49.668-3.004 10.711-108.184-33.398 3.7-11.594 63.42-15.387z"/>
    <path fill="#fff" d="M144.967 91.581l42.657 49.335-2.648 8.514-105.832-32.673 2.645-8.513 63.178-16.663z"/>
    <path fill="#202EFF" d="M140.645 104.006L95.828 55.169l3.876-12.235 108.321 34.722-3.619 9.278-63.761 17.072z"/>
    <path fill="#fff" d="M141.554 102.135L98.879 53.294l2.645-8.517L207.355 77.45l-2.645 8.166-63.156 16.519z"/>
    <path fill="#202EFF" d="M96.571 163.719l-39.9 8.874c-2.877.642-5.128.645-7.534-.837-2.581-1.591-3.324-3.572-3.964-6.439l-18.94-84.573c-1.157-5.173 2.11-10.304 7.302-11.457l41.405-9.208c2.596-.578 4.291-.22 6.373 1.097 2.083 1.318 2.98 3.65 3.746 7.07l18.814 84.016c.58 2.586.823 5.359-.499 7.43-1.319 2.075-3.236 3.235-6.803 4.027z"/>
    <path fill="#fff" stroke="#202EFF" stroke-miterlimit="10" d="M98.163 161.392l-41.673 9.267c-3.419.76-6.81-1.385-7.573-4.791L29.544 79.342c-.763-3.406 1.39-6.785 4.808-7.546l41.67-9.267c3.418-.76 6.809 1.385 7.572 4.792l19.377 86.521c.763 3.41-1.389 6.789-4.808 7.55z"/>
    <path fill="#202EFF" d="M78.188 150.642c-3.05-1.892-7.063-.96-8.962 2.079-1.9 3.038-.964 7.037 2.085 8.93 3.05 1.893 7.063.96 8.962-2.078 1.9-3.039.964-7.038-2.085-8.931zm-5.924 10.441a5.486 5.486 0 0 1-1.769-7.574 5.529 5.529 0 0 1 7.601-1.763 5.486 5.486 0 0 1 1.77 7.574 5.528 5.528 0 0 1-7.602 1.763z"/>
  </g>
  <defs>
    <clipPath id="clip0">
      <path fill="#fff" d="M0 0h183v133H0z" transform="translate(26 40)"/>
    </clipPath>
  </defs>
</svg>
