<svg xmlns="http://www.w3.org/2000/svg" width="260" height="225" fill="none">
  <path fill="#FFF2EC" d="M169.299 0C124.762 0 99.071 26.906 49.994 41.467.915 56.027-11.483 133.504 10.399 183.062c17.505 39.647 47.341 46.711 83.085 39.386 33.511-6.868 40.46-10.337 91.016-10.337 50 0 68-14.346 72.325-48.771C275.779 12.484 199.713 0 169.299 0z"/>
  <path fill="#202EFF" d="M103.34 71.25s8.33-19.29 16.776-29.97c4.698-5.943 7.309-8.28 10.422-8.28 2.012 0 5.69 1.066 7.681 2.63 11.988 9.44 22.839 41.028 22.839 41.028l-15.868-1.28s1.139-12.737-4.125-23.39c-2.86-5.792-6.176-10.08-9.243-10.301-4.205-.302-7.976 6.707-9.628 14.2-1.768 8.02-.739 17.011-.739 17.011L103.34 71.25z"/>
  <path fill="#fff" d="M107.559 71.714s14.567-37.085 24.537-36.589c14.104.7 28.384 41.536 28.384 41.536h-11.616s-.215-14.017-5.478-24.673c-2.861-5.792-8.481-11.198-11.548-11.419-4.205-.302-8.857 7.828-10.512 15.321-1.768 8.02-.739 17.011-.739 17.011l-13.028-1.187z"/>
  <path fill="#202EFF" d="M61.026 102.864c-1.292 6.286-3.162 18.582-1.121 30.172 3.005 17.055-2.638 21.073 2.11 29.249 4.747 8.176 113.086 32.893 119.121 28.105 6.034-4.788 19.399-13.019 18.724-18.338-.676-5.319-3.841-26.072-4.368-39.724-.528-13.652 9.845-35.99 4.397-43.969-5.449-7.978-68.403-17.02-78.077-17.02-7.655 0-12.959-2.833-27.474-2.366-3.835.125-12.429-3.095-16.846-2.503-6.304.845-11.573 6.588-14.454 9.222-4.29 3.925-4.89 10.13-2.142 19.476.328 1.109.678 5.04.13 7.696z"/>
  <path fill="#fff" d="M65.67 100.399s-4.824 17.125-2.03 32.881c2.89 16.297-2.536 20.138 2.03 27.948 4.564 7.81 110.153 31.508 115.952 26.935 5.803-4.573 17.246-11.689 16.597-16.77-.65-5.081-3.693-25.744-4.2-38.789-.507-13.045 9.469-34.388 4.226-42.012-5.241-7.622-65.774-16.262-75.08-16.262-7.359 0-17.469-2.131-31.428-1.684-3.686.119-7.356-2.488-11.599-1.922-6.06.807-10.718 5.246-13.486 7.763-4.614 4.196-4.788 11.115-.983 21.912z"/>
  <path fill="#202EFF" d="M181.621 188.163s1.226 2.97 0-10.731-4.553-28.88-2.333-37.767c2.22-8.887 5.02-21.477 2.878-31.842-2.139-10.368-5.466-9.627-21.361-12.589-6.861-1.277-16.135-2.834-26.184-4.366-13.226-2.018-27.796-3.998-39.98-5.261-21.44-2.222-22.918-5.923-22.918-5.923l-1.707.821s5.747 5.314 32.563 7.085c10.185.673 22.958 2.816 35.088 4.709 19.808 3.09 37.897 6.472 40.18 8.852 0 0 3.273 3.267 3.713 11.237.444 7.969-.443 17.67-3.388 28.592-1.858 6.89 1.128 21.912 2.304 33.996.687 7.076-.388 12.249-.388 12.249l1.533.938z"/>
  <path fill="#202EFF" d="M187.503 133.605c2.948-10.922 3.832-20.619 3.389-28.592-.444-7.97-3.713-11.236-3.713-11.236-2.284-2.381-20.373-5.764-40.181-8.853-12.13-1.89-24.903-4.036-35.088-4.709-26.819-1.771-27.433-4.576-32.563-7.084-5.13-2.509-6.226-1.31-6.226-1.31l2.614-.842s1.4-.174 4.293 1.493c2.893 1.666 2.501 3.542 23.941 5.763 12.182 1.263 26.752 3.243 39.98 5.26 10.049 1.534 19.321 3.09 26.184 4.367 15.895 2.962 19.22 2.222 21.361 12.59 2.142 10.368-.66 22.957-2.878 31.841l-1.113 1.312z"/>
  <path fill="#202EFF" d="M92.27 77.994c.605-1.385 2.005-4.03 3.959-7.349.327-.554-1.65-1.129-1.293-1.718 6.159-10.177 16.544-25.12 26.175-30.625 2.841-1.623 6.939-2.428 9.194-2.041 13.727 2.337 23.877 34.097 26.874 47.694.287 1.303 1.594 11.366 1.664 14.929.092 4.666-1.334 9.09-1.78 11.976-.925 5.975-5.513 6.957-10.936 6.251-9.883-1.289-8.811-6.997-8.043-10.678.673-3.226 1.774-6.681 2.499-9.326.629-2.302 1.745-6.379 1.948-10.266.347-6.597.043-16.968-2.913-26.285-2.554-8.051-6.513-13.039-10.452-14.006-4.2-1.03-11.107 4.921-14.785 14.233-3.936 9.964-3.376 16.642-4.423 21.755-.684 3.341-1.223 12.072-3.802 21.929-1.844 7.044-18.898 2.526-18.625-2.32.388-6.93 1.77-17.365 4.738-24.153z"/>
  <path fill="#fff" d="M94.185 78.183c2.826-6.519 23.912-42.657 36.132-40.093 14.155 2.967 23.126 32.654 25.94 45.687.27 1.249 1.765 10.897 1.826 14.314.078 4.474-1.281 9.555-1.71 12.325-.89 5.731-6.072 5.923-11.202 5.18-7.522-1.092-6.24-6.565-5.507-10.095.643-3.095 1.533-6.542 2.223-9.08.6-2.209 1.388-6.117 1.588-9.848.342-6.326.287-16.508-2.498-25.436-2.406-7.717-8.295-15.496-12.04-16.37-5.136-1.196-12.472 7.935-15.973 16.872-3.751 9.56-3.229 15.966-4.232 20.87-.655 3.205-1.939 11.718-3.576 21.351-.867 5.099-15.774 2.137-15.504-2.508.377-6.643 1.707-16.651 4.533-23.17z"/>
  <path fill="#202EFF" d="M90.504 103.14l11.88-10.005.806.244-12.396 10.278-.29-.517z"/>
  <path fill="#202EFF" d="M92.156 92.25l.89.357 8.779 13.013h-.829s-3.141-5.023-4.86-7.224c-1.725-2.198-3.98-6.147-3.98-6.147z"/>
  <path fill="#202EFF" d="M90.507 90.88s1.774 1.195 5.649 1.37c1.449.063 3.829.493 5.188.644 2.281.25 4.061.238 4.061.238v.743s-5.783-.214-9.07-.743a56.12 56.12 0 0 1-5.831-1.254v-.999h.003zM140.098 112.132l14.379-8.696 1.234-.066-15.274 9.282-.339-.52z"/>
  <path fill="#202EFF" d="M142.094 100.71l1.034.357 2.989 4.553 7.144 8.994h-.965s-3.652-5.023-5.652-7.223c-2-2.201-4.55-6.681-4.55-6.681z"/>
  <path fill="#202EFF" d="M141.036 99.366s1.945 1.379 6.417 1.96c1.67.217 4.388.894 5.951 1.187 2.62.491 4.681.665 4.681.665l-.067.74s-6.675-.824-10.431-1.692a73.79 73.79 0 0 1-6.638-1.864l.087-.996zM179.689 138.039l14.446-9.337-.11.595-14.736 10.371.4-1.629z"/>
</svg>
