<svg width="291" height="253" viewBox="0 0 291 253" fill="none" xmlns="http://www.w3.org/2000/svg">
<path d="M93.894 22.8294C138.054 17.0459 166.937 39.7456 217.444 47.4621C267.952 55.1789 290.063 128.538 274.647 179.334C262.314 219.971 233.626 230.681 197.256 228.234C163.159 225.941 159.196 205.305 109.653 215.377C52.3368 227.029 36.3312 216.64 27.808 192.249C-21.1589 52.1228 63.7375 26.7788 93.894 22.8294Z" fill="#F8F8F8"/>
<path d="M149.432 185.9C181.703 185.9 207.863 159.731 207.863 127.45C207.863 95.1689 181.703 69 149.432 69C117.161 69 91 95.1689 91 127.45C91 159.731 117.161 185.9 149.432 185.9Z" fill="#FF9882"/>
<path d="M149.432 173.914C175.086 173.914 195.882 153.112 195.882 127.45C195.882 101.788 175.086 80.9856 149.432 80.9856C123.779 80.9856 102.982 101.788 102.982 127.45C102.982 153.112 123.779 173.914 149.432 173.914Z" fill="#E9ECF1"/>
<path opacity="0.3" d="M150.745 89.1946H148.119V130.241H150.745V89.1946Z" fill="#535461"/>
<g opacity="0.1">
<path opacity="0.1" d="M189.315 126.465H152.221V129.749H189.315V126.465Z" fill="black"/>
<path opacity="0.1" d="M126.033 114.18L124.51 117.089L147.85 129.315L149.373 126.406L126.033 114.18Z" fill="black"/>
<path opacity="0.1" d="M149.432 133.032C152.151 133.032 154.356 130.827 154.356 128.107C154.356 125.386 152.151 123.181 149.432 123.181C146.712 123.181 144.508 125.386 144.508 128.107C144.508 130.827 146.712 133.032 149.432 133.032Z" fill="black"/>
</g>
<path d="M189.315 125.808H152.221V129.092H189.315V125.808Z" fill="#535461"/>
<path d="M149.381 125.753L126.041 113.527L124.518 116.436L147.858 128.662L149.381 125.753Z" fill="#535461"/>
<path d="M149.43 132.376C152.149 132.376 154.354 130.17 154.354 127.45C154.354 124.73 152.149 122.524 149.43 122.524C146.71 122.524 144.506 124.73 144.506 127.45C144.506 130.17 146.71 132.376 149.43 132.376Z" fill="#535461"/>
<g opacity="0.1">
<path opacity="0.1" d="M106.588 133.032C106.588 107.37 127.383 86.5679 153.037 86.5679C160.238 86.5615 167.341 88.2323 173.784 91.448C180.227 94.6637 185.833 99.3359 190.158 105.095C182.253 90.7251 166.989 80.9856 149.427 80.9856C123.772 80.9856 102.977 101.788 102.977 127.45C102.962 137.531 106.239 147.341 112.311 155.388C108.546 148.539 106.576 140.848 106.588 133.032V133.032Z" fill="black"/>
</g>
<g opacity="0.1">
<path opacity="0.1" d="M173.081 141.741C173.081 141.741 172.735 142.435 172.261 143.269C171.536 142.882 170.835 142.451 170.163 141.979L170.019 141.877L169.941 141.821L170.762 140.915L173.081 141.741Z" fill="black"/>
</g>
<g opacity="0.1">
<path opacity="0.1" d="M167.681 142.64C167.469 142.843 167.295 143.083 167.171 143.349C166.004 142.822 164.778 142.157 164.331 141.911L164.297 141.893C164.519 141.613 164.775 141.36 165.057 141.14C165.057 141.14 168.282 142.115 167.681 142.64Z" fill="black"/>
</g>
<g opacity="0.1">
<path opacity="0.1" d="M174.061 93.984C173.62 94.56 173.029 95.0043 172.353 95.2688C171.678 95.5332 170.942 95.6079 170.227 95.4846C170.186 94.644 170.012 93.805 169.556 93.2928C168.356 91.9432 173.454 92.1681 173.454 92.1681C173.611 92.7878 173.814 93.3949 174.061 93.984V93.984Z" fill="black"/>
</g>
<path opacity="0.05" d="M183.616 105.255C183.616 105.255 183.017 106.68 183.316 107.13Z" fill="black"/>
<path opacity="0.05" d="M159.699 104.805C159.699 104.805 160 106.231 159.699 106.68Z" fill="black"/>
</svg>
