<svg width="324" height="238" viewBox="0 0 324 238" fill="none" xmlns="http://www.w3.org/2000/svg">
<path d="M43.4551 49.2463C34.9551 55.7463 -12.8507 88.4971 24.4551 166.746C35.5739 190.068 57.7918 210.775 115.108 199.123C164.651 189.051 168.615 209.687 202.711 211.981C239.081 214.427 267.769 203.717 280.102 163.08C295.518 112.284 326.041 39.1169 280.104 16.746C235.956 -4.75375 202.711 23.9387 140.955 22.2462C102.366 21.1887 58.9866 37.3693 43.4551 49.2463Z" fill="#FFF2EC"/>
<g opacity="0.1">
<path opacity="0.1" d="M194.77 110.211H157.676V113.495H194.77V110.211Z" fill="black"/>
<path opacity="0.1" d="M131.488 97.9259L129.965 100.835L153.305 113.061L154.828 110.152L131.488 97.9259Z" fill="black"/>
<path opacity="0.1" d="M154.885 116.779C157.604 116.779 159.809 114.573 159.809 111.853C159.809 109.133 157.604 106.927 154.885 106.927C152.165 106.927 149.961 109.133 149.961 111.853C149.961 114.573 152.165 116.779 154.885 116.779Z" fill="black"/>
</g>
<g opacity="0.1">
<path opacity="0.1" d="M112.045 116.779C112.045 91.1164 132.84 70.3142 158.495 70.3142C165.695 70.3078 172.798 71.9786 179.241 75.1943C185.684 78.41 191.29 83.0822 195.615 88.8408C187.71 74.4714 172.446 64.7319 154.884 64.7319C129.229 64.7319 108.434 85.5341 108.434 111.196C108.419 121.278 111.696 131.088 117.768 139.134C114.003 132.286 112.033 124.594 112.045 116.779Z" fill="black"/>
</g>
<g opacity="0.1">
<path opacity="0.1" d="M178.538 125.487C178.538 125.487 178.192 126.181 177.718 127.015C176.993 126.628 176.293 126.197 175.62 125.725L175.476 125.623L175.398 125.567L176.219 124.661L178.538 125.487Z" fill="black"/>
</g>
<g opacity="0.1">
<path opacity="0.1" d="M173.138 126.386C172.926 126.589 172.753 126.829 172.628 127.096C171.461 126.569 170.235 125.904 169.788 125.657L169.754 125.639C169.976 125.359 170.232 125.106 170.514 124.886C170.514 124.886 173.739 125.861 173.138 126.386Z" fill="black"/>
</g>
<g opacity="0.1">
<path opacity="0.1" d="M179.516 77.7303C179.075 78.3063 178.484 78.7506 177.808 79.0151C177.133 79.2796 176.397 79.3542 175.682 79.231C175.641 78.3903 175.467 77.5513 175.011 77.0391C173.811 75.6895 178.909 75.9144 178.909 75.9144C179.066 76.5341 179.269 77.1412 179.516 77.7303Z" fill="black"/>
</g>
<path opacity="0.05" d="M189.071 89.0016C189.071 89.0016 188.472 90.4267 188.771 90.8766L189.071 89.0016Z" fill="black"/>
<path opacity="0.05" d="M165.156 88.5517C165.156 88.5517 165.457 89.9768 165.156 90.4267V88.5517Z" fill="black"/>
<path d="M123.133 119.516L151.306 40L266 54.4077L232.99 146.427L123.133 119.516Z" fill="#202EFF"/>
<path d="M125.977 119.516L153.439 42.3444L264.934 55.1181L232.703 144.036L125.977 119.516Z" fill="white"/>
<path d="M130.586 115.438L131.663 112.727L229.029 134.47L260.923 56.4111L231.282 137.998L130.586 115.438Z" fill="#202EFF"/>
<path d="M124.053 116.727L37 136.47L37.3554 145.13L163.46 179.665C163.737 179.743 164.028 179.718 164.288 179.594L231.341 147.912V142.093L124.053 116.727Z" fill="#202EFF"/>
<path d="M124.765 118.859L39.293 139.284L39.659 142.172L163.475 176.02L163.532 178.01L230.322 147.084V142.822L124.765 118.859Z" fill="white"/>
<path d="M163.461 173.15L165.885 172.067L165.252 178.748L163.461 179.459V173.15Z" fill="#202EFF"/>
<path d="M230.321 142.821L163.459 173.356L162.496 173.072L228.622 142.132L230.321 142.821Z" fill="#202EFF"/>
<path d="M213.006 140.63L171.749 156.235L171.184 156.1L212.011 140.296L213.006 140.63Z" fill="#202EFF"/>
<path d="M138.021 124.194L95.0754 135.785L94.457 135.678L136.93 123.935L138.021 124.194Z" fill="#202EFF"/>
<path d="M202.254 138.655L163.061 153.016L162.496 152.885L201.259 138.328L202.254 138.655Z" fill="#202EFF"/>
<path d="M182.375 139.607L151.209 151.105L150.758 150.995L181.582 139.348L182.375 139.607Z" fill="#202EFF"/>
<path d="M143.504 125.824L114.318 134.353L113.898 134.275L142.761 125.633L143.504 125.824Z" fill="#202EFF"/>
<path d="M130.586 123.299L83.401 134.353L82.7969 134.264L129.527 123.079L130.586 123.299Z" fill="#202EFF"/>
<path d="M113.87 142.132L92.0508 147.947L129.648 157.993L147.854 150.878L113.87 142.132ZM129.556 156.828L94.453 147.961L113.87 142.843L145.778 150.896L129.556 156.828Z" fill="#202EFF"/>
<path d="M124.555 121.182L74.4453 132.865L180.955 159.414L222.604 142.594L124.555 121.182ZM180.603 158.604L77.4766 132.687L125.309 121.974L220.006 142.843L180.603 158.604Z" fill="#202EFF"/>
<path d="M187.481 155.851L84.625 130.939L85.7373 130.677L188.569 155.418L187.481 155.851Z" fill="#202EFF"/>
<path d="M213.425 145.347L118.348 123.171L119.403 122.872L214.463 145.237L213.425 145.347Z" fill="#202EFF"/>
<path d="M158.241 144.587L94.457 128.893L95.1535 128.723L158.924 144.31L158.241 144.587Z" fill="#202EFF"/>
</svg>
