<svg width="152" height="170" viewBox="0 0 152 170" fill="none" xmlns="http://www.w3.org/2000/svg">
<path d="M0 45.1451L2.88549 124.037L78.0257 170L152 123.478V44.8659L76.2782 14.286L0 45.1451Z" fill="#202EFF"/>
<path d="M4.19531 46.2621L7.36041 122.082L79.1454 165.532L150.044 122.082V46.5413L77.1183 16.7992L4.19531 46.2621Z" fill="white"/>
<path d="M77.7188 81.2009L147.222 48.3983L77.7188 83.4767V81.2009Z" fill="#202EFF"/>
<path d="M77.7176 81.2009L5.87109 47.3651L77.7176 83.4767V81.2009Z" fill="#202EFF"/>
<path d="M78.8651 165.669L75.8398 92.675L77.7188 85.2918L80.1317 83.4767L78.8651 165.669Z" fill="#202EFF"/>
<path d="M35.8872 143.913L44.7338 148.119L43.8866 65.2254L115.448 30.2671L105.975 26.2963L31.9336 59.8137L35.8872 143.913Z" fill="#202EFF"/>
<path d="M37.2856 141.958L43.6158 145.885L42.489 64.667L113.589 30.1079L105.696 27.4132L33.332 60.3722L37.2856 141.958Z" fill="white"/>
<path d="M112.469 147.289L111.373 65.379L37.9414 30.0018L46.7992 26.2879L123.687 60.1767L121.705 141.459L112.469 147.289Z" fill="#202EFF"/>
<path d="M113.868 146.172L112.772 65.0998L40.7383 30.2811L47.9185 27.4049L122.29 61.573L120.587 141.459L113.868 146.172Z" fill="white"/>
<path d="M75.269 50.9617C75.269 50.9617 87.5323 50.3027 101.775 50.6993C116.018 51.0958 122.569 48.7837 122.469 44.2655C122.376 40.0936 120.847 25.0425 118.213 14.3503C116.977 9.3239 111.819 2.26186 105.39 0.209432C102.197 -0.809803 96.3342 1.62519 89.8027 12.8089C79.4574 30.5212 72.6016 44.2571 72.6016 44.2571L75.269 50.9617Z" fill="#202EFF"/>
<path d="M73.9329 52.129C73.9329 52.129 61.8485 54.9214 48.1368 59.2748C34.4251 63.6282 27.4211 63.2428 26.2552 58.8922C25.1787 54.8739 22.4526 40.0406 22.0136 29.0719C21.8095 23.9143 24.8376 15.7158 30.5051 11.96C33.3179 10.0946 39.69 10.7899 49.1573 19.6698C64.1524 33.7353 74.6458 44.9692 74.6458 44.9692L73.9329 52.129Z" fill="#202EFF"/>
<path d="M77.0749 49.7275C77.0749 49.7275 88.5162 49.0992 101.806 49.4343C115.095 49.7694 121.21 47.6304 121.126 43.4808C121.048 39.6468 119.65 25.8104 117.215 15.9838C116.071 11.3652 111.273 4.88116 105.278 3.01023C102.303 2.08036 96.826 4.33105 90.7083 14.6267C81.0201 30.9317 74.5977 43.573 74.5977 43.573L77.0749 49.7275Z" fill="white"/>
<path d="M80.8007 50.0654C80.8007 50.0654 91.9037 54.0474 102.638 68.4954C113.372 82.9434 120.468 93.334 120.468 93.334C120.468 93.334 120.289 82.7284 123.541 72.5723C126.792 62.4163 127.248 56.2087 127.248 56.2087C127.248 56.2087 118.197 58.2053 104.992 52.0871C91.7863 45.9689 80.3086 47.1305 80.3086 47.1305L80.8007 50.0654Z" fill="#202EFF"/>
<path d="M80.0781 49.451C80.0781 49.451 91.9836 50.0179 102.717 64.4687C113.451 78.9195 119.133 86.3418 119.133 86.3418C119.133 86.3418 119.281 80.4972 122.53 70.3412C125.782 60.1851 126.24 57.2084 126.24 57.2084C126.24 57.2084 116.605 58.1941 103.4 52.0759C90.1941 45.9577 80.861 48.4262 80.861 48.4262L80.0781 49.451Z" fill="white"/>
<path d="M71.8819 50.4647C71.8819 50.4647 60.7174 53.0421 48.0458 57.0604C35.3771 61.0787 28.9071 60.7241 27.8306 56.7141C26.838 53.0086 24.3216 39.3313 23.919 29.2171C23.7317 24.4644 26.5305 16.9025 31.7674 13.4371C34.3677 11.717 40.2533 12.3565 48.9993 20.5411C62.8508 33.5063 72.5418 43.8634 72.5418 43.8634L71.8819 50.4647Z" fill="white"/>
<path d="M70.3047 53.9804C70.3047 53.9804 58.9361 58.1271 52.1305 74.7839C45.325 91.4407 39.0564 100.033 39.0564 100.033C39.0564 100.033 36.9286 91.2173 34.0739 85.7526C29.1836 76.3952 24.0977 65.6555 24.0977 65.6555C24.0977 65.6555 35.1419 66.5686 46.8237 57.8898C59.3107 48.6105 70.0558 49.895 70.0558 49.895L70.3047 53.9804Z" fill="#202EFF"/>
<path d="M71.7216 51.8972C71.7216 51.8972 60.146 54.7315 52.3815 70.9667C44.617 87.2018 40.4649 95.5763 40.4649 95.5763C40.4649 95.5763 39.1983 89.8686 34.062 80.5223C28.9257 71.1761 27.9023 68.3446 27.9023 68.3446C27.9023 68.3446 37.5486 67.4706 49.3338 58.9369C61.1191 50.4033 70.7569 51.0427 70.7569 51.0427L71.7216 51.8972Z" fill="white"/>
<path d="M70.0836 42.6599C70.0836 42.6599 36.6041 7.32453 31.4286 15.78C26.2532 24.2354 70.0836 42.6599 70.0836 42.6599Z" fill="#202EFF"/>
<path d="M76.8086 41.7077C76.8086 41.7077 99.1124 -1.54142 106.441 5.14085C113.769 11.8231 76.8086 41.7077 76.8086 41.7077Z" fill="#202EFF"/>
<path d="M68.8844 37.318C69.6952 37.3012 71.6441 37.0248 72.4605 36.7315C75.497 35.6397 77.5968 33.0455 79.1206 34.1932C79.87 34.7573 80.3565 37.3207 80.9073 39.0576C82.3808 43.7238 85.1293 49.4901 81.911 52.0257C80.8374 52.8718 79.4282 51.7632 77.1858 52.9472C75.2453 53.972 75.1251 55.2956 71.9293 54.6142C69.1528 54.0222 69.7008 49.2807 68.574 46.586C65.5599 39.3844 63.2532 37.4352 68.8844 37.318Z" fill="#202EFF"/>
<path d="M69.8773 38.6276C70.5707 38.6164 72.2343 38.3875 72.9333 38.1417C75.5252 37.2314 77.3147 35.0505 78.6204 36.0223C79.2607 36.4998 79.6857 38.6583 80.161 40.1244C81.436 44.0589 83.8015 48.9233 81.0558 51.0511C80.1415 51.7604 78.9336 50.8221 77.0183 51.8134C75.3603 52.6707 75.2652 53.7849 72.5279 53.2041C70.1513 52.6986 70.607 48.7027 69.6368 46.4324C67.0421 40.3589 65.0625 38.7114 69.8773 38.6276Z" fill="white"/>
</svg>
